<?xml version="1.0" encoding="UTF-8" standalone="no"?>
<svg width="200px" height="200px" viewBox="0 0 200 200" version="1.1" xmlns="http://www.w3.org/2000/svg" xmlns:xlink="http://www.w3.org/1999/xlink" xmlns:sketch="http://www.bohemiancoding.com/sketch/ns">
    <!-- Generator: Sketch 3.3 (11970) - http://www.bohemiancoding.com/sketch -->
    <title>depth coaching + Oval 58 Copy 4</title>
    <desc>Created with Sketch.</desc>
    <defs></defs>
    <g id="Page-1" stroke="none" stroke-width="1" fill="none" fill-rule="evenodd" sketch:type="MSPage">
        <g id="depth-coaching-+-Oval-58-Copy-4" sketch:type="MSLayerGroup">
            <g id="depth-coaching" sketch:type="MSShapeGroup">
                <circle id="Oval-40-Copy-9" fill="#1EA285" cx="100" cy="100" r="100"></circle>
                <path d="M141.09201,191.194173 C174.462694,176.133852 198.086311,143.294898 199.889127,104.751046 L129,51 L69,98 L93,117 L111,151 L109,155 L97,159 L141.092016,191.19417 Z" id="Oval-40-Copy-7" fill="#0E7864"></path>
                <g id="Group" transform="translate(55.000000, 42.000000)">
                    <path d="M35.4545455,110.197674 C35.4545455,110.197674 36.8181818,104.755814 45,104.755814 C53.1818182,104.755814 54.5454545,110.197674 54.5454545,110.197674 C54.5454545,110.197674 55.9090909,117 45,117 C34.0909091,117 35.4545455,110.197674 35.4545455,110.197674 Z" id="Rectangle-80" fill="#F1F0EE"></path>
                    <g id="Rectangle-80-+-Rectangle-80-Copy-+-Rectangle-80-Copy-2" transform="translate(33.727273, 49.976744)" fill="#F1F0EE">
                        <path d="M22.2204368,60.1345726 C22.2204368,60.1345726 22.2204368,53.4186053 11.2727273,53.4186053 C0.325017756,53.4186053 0.325017756,60.1345726 0.325017756,60.1345726 L5.71697443,0.00220610785 L16.8284801,0.00220610785 L22.2204368,60.1345726 Z" id="Rectangle-80"></path>
                    </g>
                    <path d="M45,0.405391861 C22.1591547,0.556554673 2.16255514,14.9837429 0.379578258,32.6294186 C-1.35564439,50.2750943 18.6409551,64.4327466 45,64.2514201 C71.3590449,64.0700935 91.3556444,49.6429053 89.6204217,32.0273933 C87.8374449,14.4118813 67.8408453,0.254229049 45,0.405391861 Z" id="Oval-58" fill="#F1F0EE"></path>
                    <path d="M8.26818379,30.5109579 C6.83973742,44.6727159 23.3010659,56.035117 45,55.8895911 C66.6989341,55.7440652 83.1602626,44.1653447 81.7318162,30.027795 C80.2640582,15.8902452 63.8027298,4.52784413 45,4.64916173 C26.1972702,4.77047934 9.73594175,16.3491999 8.26818379,30.5109579 Z" id="Oval-58-Copy" fill="#1EA285"></path>
                </g>
            </g>
            <path d="M78.0790135,93.1315965 C68.2058844,88.580998 62.1996975,80.8690638 63.0863656,72.0785492 C64.5541236,57.9167912 81.015452,46.3380707 99.8181818,46.2167531 C112.296467,46.1362416 123.74355,51.1134007 130.461429,58.6028725 C125.281155,55.5733896 119.252425,53.8371777 112.818182,53.8371777 C93.4882156,53.8371777 77.8181818,69.5072115 77.8181818,88.8371777 C77.8181818,90.2910587 77.9068291,91.7242351 78.0790135,93.1315965 Z" id="Oval-58-Copy-4" fill="#0E7864" sketch:type="MSShapeGroup"></path>
        </g>
    </g>
</svg>