<?xml version="1.0" encoding="UTF-8" standalone="no"?>
<svg width="1024px" height="556px" viewBox="0 0 1024 556" version="1.1" xmlns="http://www.w3.org/2000/svg" xmlns:xlink="http://www.w3.org/1999/xlink" xmlns:sketch="http://www.bohemiancoding.com/sketch/ns">
    <!-- Generator: Sketch 3.3 (11970) - http://www.bohemiancoding.com/sketch -->
    <title>Rectangle 38 + Group</title>
    <desc>Created with Sketch.</desc>
    <defs></defs>
    <g id="Page-1" stroke="none" stroke-width="1" fill="none" fill-rule="evenodd" sketch:type="MSPage">
        <g id="Rectangle-38-+-Group" sketch:type="MSLayerGroup">
            <rect id="Rectangle-38" opacity="0.263817631" fill="#CED1D3" sketch:type="MSShapeGroup" x="0" y="0" width="1024" height="556"></rect>
            <g id="Group" transform="translate(306.000000, 78.000000)" sketch:type="MSShapeGroup">
                <g id="assertiviteits-coaching-copy" transform="translate(105.000000, 0.000000)">
                    <circle id="Oval-2-Copy" fill="#F48267" cx="98" cy="98" r="98"></circle>
                    <path d="M148.820397,181.809882 C177.10585,164.621453 196,133.517209 196,98 C196,88.6777647 194.698363,79.6595429 192.266919,71.1171641 L115.64,37.24 L98,88.2 L98,98 L80.36,151.9 L148.820397,181.809882 Z" id="Oval-1-Copy" fill="#BE634E"></path>
                    <path d="M100.489174,91.0260482 L115.928682,37.24 L80.0713181,99.0939535 L95.5108263,99.0939518 L80.0713181,152.88 L115.928682,91.0260465 L100.489174,91.0260482 Z" id="Rectangle-4" fill="#4A4A4A"></path>
                </g>
                <path d="M18.76,269 L24.84,269 L15.8,241 L9.44,241 L0.4,269 L6.48,269 L8.44,262.36 L16.84,262.36 L18.76,269 Z M10.64,254.88 C11.44,252.16 12.28,249.24 12.64,247.04 C12.96,248.84 13.92,252.12 14.68,254.88 L15.52,257.88 L9.76,257.88 L10.64,254.88 Z M26.6,266.12 C28.72,268.4 31.6,269.4 35.12,269.4 C39.52,269.4 42.68,266.84 42.68,263.16 C42.68,259.44 38.88,257.6 35.92,256.72 C34.16,256.2 33.04,255.72 33.04,254.76 C33.04,254 33.8,253.52 34.84,253.52 C36,253.52 37.56,254.36 38.4,255.28 L41.52,251.92 C39.76,250.08 37.68,249.08 34.72,249.08 C31.44,249.08 27.8,251.2 27.8,254.96 C27.8,258.92 31.56,260.6 34.6,261.48 C36.24,261.96 37.24,262.44 37.24,263.44 C37.24,264.16 36.36,264.64 35.16,264.64 C33.28,264.64 31.12,264 29.76,262.44 L26.6,266.12 Z M45.4,266.12 C47.52,268.4 50.4,269.4 53.92,269.4 C58.32,269.4 61.48,266.84 61.48,263.16 C61.48,259.44 57.68,257.6 54.72,256.72 C52.96,256.2 51.84,255.72 51.84,254.76 C51.84,254 52.6,253.52 53.64,253.52 C54.8,253.52 56.36,254.36 57.2,255.28 L60.32,251.92 C58.56,250.08 56.48,249.08 53.52,249.08 C50.24,249.08 46.6,251.2 46.6,254.96 C46.6,258.92 50.36,260.6 53.4,261.48 C55.04,261.96 56.04,262.44 56.04,263.44 C56.04,264.16 55.16,264.64 53.96,264.64 C52.08,264.64 49.92,264 48.56,262.44 L45.4,266.12 Z M83.16,260.44 L83.16,259.76 C83.16,253.76 80.56,249.04 73.96,249.04 C67.96,249.04 64.2,253.64 64.2,259.2 C64.2,265.2 68.4,269.4 74.12,269.4 C78.56,269.4 80.68,267.96 82.76,265.16 L79.04,262.48 C78.08,263.88 76.6,264.88 74.44,264.88 C72.24,264.88 70.24,263.68 69.84,260.44 L83.16,260.44 Z M73.92,253.6 C75.64,253.6 77.36,254.76 77.72,257 L70,257 C70.56,254.72 72.12,253.6 73.92,253.6 L73.92,253.6 Z M92.68,259.36 C92.68,256.16 95,254.48 97.92,254.48 L97.92,249 C95.36,249 93.6,250.6 92.48,252.72 C92.6,251.96 92.68,251.24 92.68,250.8 L92.68,249.48 L87.08,249.48 L87.08,269 L92.68,269 L92.68,259.36 Z M100.72,249.48 L100.72,254.68 L103.44,254.68 L103.44,269 L109.04,269 L109.04,254.68 L111.8,254.68 L111.8,249.48 L109.04,249.48 L109.04,242.52 L103.44,242.52 L103.44,249.48 L100.72,249.48 Z M115.16,243.44 C115.16,245.44 116.84,247.12 118.84,247.12 C120.84,247.12 122.52,245.44 122.52,243.44 C122.52,241.44 120.84,239.76 118.84,239.76 C116.84,239.76 115.16,241.44 115.16,243.44 L115.16,243.44 Z M121.64,269 L121.64,249.48 L115.92,249.48 L115.92,269 L121.64,269 Z M138.44,269 L145.56,249.48 L139.48,249.48 L135.92,259.64 C135.52,260.8 135.28,262.24 135.24,262.44 C135.2,262.16 134.96,260.76 134.56,259.64 L131,249.48 L124.92,249.48 L132.04,269 L138.44,269 Z M147.96,243.44 C147.96,245.44 149.64,247.12 151.64,247.12 C153.64,247.12 155.32,245.44 155.32,243.44 C155.32,241.44 153.64,239.76 151.64,239.76 C149.64,239.76 147.96,241.44 147.96,243.44 L147.96,243.44 Z M154.44,269 L154.44,249.48 L148.72,249.48 L148.72,269 L154.44,269 Z M158.68,249.48 L158.68,254.68 L161.4,254.68 L161.4,269 L167,269 L167,254.68 L169.76,254.68 L169.76,249.48 L167,249.48 L167,242.52 L161.4,242.52 L161.4,249.48 L158.68,249.48 Z M191.44,260.44 L191.44,259.76 C191.44,253.76 188.84,249.04 182.24,249.04 C176.24,249.04 172.48,253.64 172.48,259.2 C172.48,265.2 176.68,269.4 182.4,269.4 C186.84,269.4 188.96,267.96 191.04,265.16 L187.32,262.48 C186.36,263.88 184.88,264.88 182.72,264.88 C180.52,264.88 178.52,263.68 178.12,260.44 L191.44,260.44 Z M182.2,253.6 C183.92,253.6 185.64,254.76 186,257 L178.28,257 C178.84,254.72 180.4,253.6 182.2,253.6 L182.2,253.6 Z M194.8,243.44 C194.8,245.44 196.48,247.12 198.48,247.12 C200.48,247.12 202.16,245.44 202.16,243.44 C202.16,241.44 200.48,239.76 198.48,239.76 C196.48,239.76 194.8,241.44 194.8,243.44 L194.8,243.44 Z M201.28,269 L201.28,249.48 L195.56,249.48 L195.56,269 L201.28,269 Z M205.52,249.48 L205.52,254.68 L208.24,254.68 L208.24,269 L213.84,269 L213.84,254.68 L216.6,254.68 L216.6,249.48 L213.84,249.48 L213.84,242.52 L208.24,242.52 L208.24,249.48 L205.52,249.48 Z M219.32,266.12 C221.44,268.4 224.32,269.4 227.84,269.4 C232.24,269.4 235.4,266.84 235.4,263.16 C235.4,259.44 231.6,257.6 228.64,256.72 C226.88,256.2 225.76,255.72 225.76,254.76 C225.76,254 226.52,253.52 227.56,253.52 C228.72,253.52 230.28,254.36 231.12,255.28 L234.24,251.92 C232.48,250.08 230.4,249.08 227.44,249.08 C224.16,249.08 220.52,251.2 220.52,254.96 C220.52,258.92 224.28,260.6 227.32,261.48 C228.96,261.96 229.96,262.44 229.96,263.44 C229.96,264.16 229.08,264.64 227.88,264.64 C226,264.64 223.84,264 222.48,262.44 L219.32,266.12 Z M255.92,252.48 C254.04,250.36 251.6,249.04 248.52,249.04 C242.68,249.04 238.52,253.52 238.52,259.2 C238.52,264.88 242.68,269.36 248.56,269.36 C252,269.36 254.4,267.92 256.4,265.2 L252.2,262 C251.36,263.2 250.16,264.08 248.56,264.08 C245.96,264.08 244.12,262.2 244.12,259.2 C244.12,256.32 245.96,254.24 248.56,254.24 C250.16,254.24 251.04,255 252.04,256.08 L255.92,252.48 Z M269.32,269.36 C275.04,269.36 279.52,265 279.52,259.2 C279.52,253.4 275.04,249.04 269.32,249.04 C263.6,249.04 259.12,253.4 259.12,259.2 C259.12,265 263.6,269.36 269.32,269.36 L269.32,269.36 Z M269.32,264.4 C266.52,264.4 264.56,262.2 264.56,259.2 C264.56,256.24 266.44,254.04 269.32,254.04 C272.16,254.04 274.04,256.24 274.04,259.2 C274.04,262.2 272.16,264.4 269.32,264.4 L269.32,264.4 Z M303.24,269 L303.24,263.92 L302.44,263.92 C301.72,263.92 301.24,263.48 301.24,262.76 L301.24,256.88 C301.24,252.2 297.92,248.96 292.48,248.96 C286.96,248.96 284.72,252.96 284.72,252.96 L288.64,255.88 C289.44,254.6 290.68,253.92 292.2,253.92 C294.36,253.92 295.68,255.2 295.68,257.12 L295.68,257.76 C294.2,257.48 292.6,257.28 290.96,257.28 C285.52,257.28 282.88,260.44 282.88,263.68 C282.88,266.6 285.08,269.4 289.4,269.4 C292.88,269.4 295.24,267.56 296.36,265.68 C297.24,267.72 298.88,269 301.28,269 L303.24,269 Z M290.84,265 C289.36,265 288.56,264.28 288.56,263.2 C288.56,261.6 290.32,260.84 292.6,260.84 C293.36,260.84 294.64,261.04 295.68,261.24 C294.96,263.36 293.2,265 290.84,265 L290.84,265 Z M323.2,252.48 C321.32,250.36 318.88,249.04 315.8,249.04 C309.96,249.04 305.8,253.52 305.8,259.2 C305.8,264.88 309.96,269.36 315.84,269.36 C319.28,269.36 321.68,267.92 323.68,265.2 L319.48,262 C318.64,263.2 317.44,264.08 315.84,264.08 C313.24,264.08 311.4,262.2 311.4,259.2 C311.4,256.32 313.24,254.24 315.84,254.24 C317.44,254.24 318.32,255 319.32,256.08 L323.2,252.48 Z M333.2,269 L333.2,257.76 C333.44,254.96 335.12,253.6 336.84,253.6 C338.72,253.6 340.44,255 340.44,257.72 L340.44,269 L346.08,269 L346.08,257.4 C346.08,252.16 343.04,249 339,249 C336.32,249 334.36,250.32 333.08,252.16 C333.16,251.64 333.2,251.12 333.2,250.8 L333.2,239 L327.6,239 L327.6,269 L333.2,269 Z M350.64,243.44 C350.64,245.44 352.32,247.12 354.32,247.12 C356.32,247.12 358,245.44 358,243.44 C358,241.44 356.32,239.76 354.32,239.76 C352.32,239.76 350.64,241.44 350.64,243.44 L350.64,243.44 Z M357.12,269 L357.12,249.48 L351.4,249.48 L351.4,269 L357.12,269 Z M368.16,257.56 C368.24,254.96 370.12,253.6 371.8,253.6 C373.68,253.6 375.4,255 375.4,257.72 L375.4,269 L381.04,269 L381.04,257.4 C381.04,252.16 378,249 373.96,249 C371.28,249 369.32,250.32 368.04,252.16 C368.12,251.6 368.16,251.12 368.16,250.8 L368.16,249.48 L362.56,249.48 L362.56,269 L368.16,269 L368.16,257.56 Z M394.64,249.08 C389.72,249.08 385.68,252.36 385.68,257.24 C385.68,259.52 386.4,261.44 387.72,262.84 C385.04,264.92 384.44,268.36 385.88,270.6 C382.44,275.12 384.52,281.68 394.64,281.68 C408.12,281.68 408.2,267.44 398,267.44 C395.32,267.44 394.12,268.2 392.28,268.2 C389.64,268.2 389.8,266.44 391.52,265 C392.48,265.24 393.48,265.36 394.64,265.36 C399.56,265.36 403.56,262.12 403.56,257.24 C403.56,255.4 402.92,253.72 401.8,252.36 L404.12,250.04 L400.84,246.96 L398.36,249.8 C397.24,249.32 395.96,249.08 394.64,249.08 L394.64,249.08 Z M390.96,257.24 C390.96,254.96 392.4,253.6 394.64,253.6 C396.84,253.6 398.28,254.92 398.28,257.24 C398.28,259.52 396.84,260.76 394.64,260.76 C392.52,260.76 390.96,259.56 390.96,257.24 L390.96,257.24 Z M390.64,272.96 C393.48,272.96 395.64,272.04 397.8,272.04 C401.48,272.04 401.68,276.92 394.64,276.92 C389.84,276.92 388.52,274.92 389.6,272.88 C389.92,272.92 390.28,272.96 390.64,272.96 L390.64,272.96 Z" id="Assertiviteitscoachi" fill="#3E3E3E"></path>
            </g>
        </g>
    </g>
</svg>