<?xml version="1.0" encoding="UTF-8" standalone="no"?>
<svg width="200px" height="200px" viewBox="0 0 200 200" version="1.1" xmlns="http://www.w3.org/2000/svg" xmlns:xlink="http://www.w3.org/1999/xlink" xmlns:sketch="http://www.bohemiancoding.com/sketch/ns">
    <!-- Generator: Sketch 3.3 (11970) - http://www.bohemiancoding.com/sketch -->
    <title>Oval 40 Copy 11 + Oval 40 Copy 10 + Group</title>
    <desc>Created with Sketch.</desc>
    <defs></defs>
    <g id="Page-1" stroke="none" stroke-width="1" fill="none" fill-rule="evenodd" sketch:type="MSPage">
        <g id="Oval-40-Copy-11-+-Oval-40-Copy-10-+-Group" sketch:type="MSLayerGroup">
            <g sketch:type="MSShapeGroup">
                <circle id="Oval-40-Copy-11" fill="#1EA285" cx="100" cy="100" r="100"></circle>
                <path d="M148.76,96.9221026 C148.76,76.9829805 126.548846,60.8191283 99.15,60.8191283 C71.7511536,60.8191283 49.54,76.9829805 49.54,96.9221026 C49.54,116.861225 71.7511536,133.025077 99.15,133.025077 C126.548846,133.025077 148.76,116.861225 148.76,96.9221026 Z" id="Oval-59-Copy-4" fill="#0E7864"></path>
                <path d="M167.76,102.922103 C167.76,82.9829805 145.548846,66.8191283 118.15,66.8191283 C90.7511536,66.8191283 68.54,82.9829805 68.54,102.922103 C68.54,122.861225 90.7511536,139.025077 118.15,139.025077 C145.548846,139.025077 167.76,122.861225 167.76,102.922103 Z" id="Oval-59-Copy-5" fill="#1EA285"></path>
                <path d="M133.918176,193.101037 C169.482661,180.279893 195.689036,147.870394 199.51681,108.893029 L120,44 L107,37 C107,37 89.5495864,37.5268612 89,40 C88.7597838,41.0809729 81.1892678,43.985206 83,46 C83.640527,46.7127117 86,52 86,52 L93,58 L103,55 C103,55 177,80 150,116 C123,152 54,129 54,129 L133.918176,193.101037 Z" id="Oval-40-Copy-10" fill="#0E7864"></path>
                <g id="Group" transform="translate(39.500000, 36.600000)">
                    <path d="M61.105,0.0617690353 C52.0618927,0.0617690353 44.1979995,3.94449633 43.5405029,8.73408318 C42.8830063,13.52367 50.7468995,17.4063973 61.105,17.4063973 C71.4631005,17.4063973 79.3269937,13.52367 78.6694971,8.73408318 C78.0120005,3.94449633 70.1481073,0.0617690353 61.105,0.0617690353 Z" id="Oval-59" stroke="#F1F0EE" stroke-width="2"></path>
                    <path d="M65.0475439,17.1355756 L67.76,20.6367107 L53.24,20.6367107 L55.9524561,17.1355756 L65.0475439,17.1355756 Z" id="Rectangle-83" fill="#F1F0EE"></path>
                    <path d="M68.4609492,16.3537688 C68.4609492,16.3537688 68.97,19.4389085 60.5,19.4389085 C52.03,19.4389085 52.5390508,16.3537688 52.5390508,16.3537688 L52.7935762,14.8111989 C52.7935762,14.8111989 54.3308231,11.7260591 60.5,11.7260591 C66.6691769,11.7260591 68.2064238,14.8111989 68.2064238,14.8111989 L68.4609492,16.3537688 Z" id="Rectangle-83" fill="#F1F0EE"></path>
                    <path d="M121,64.0482537 C121,39.7322511 93.9132274,20.0202363 60.5,20.0202363 C27.0867726,20.0202363 0,39.7322511 0,64.0482537 C0,88.3642563 27.0867726,108.076271 60.5,108.076271 C93.9132274,108.076271 121,88.3642563 121,64.0482537 Z M110.11,60.9144194 C110.11,40.9752973 87.8988464,24.8114451 60.5,24.8114451 C33.1011536,24.8114451 10.89,40.9752973 10.89,60.9144194 C10.89,80.8535415 33.1011536,97.0173937 60.5,97.0173937 C87.8988464,97.0173937 110.11,80.8535415 110.11,60.9144194 Z" id="Oval-59" fill="#F1F0EE"></path>
                    <path d="M78.65,30.2191283 L68.97,56.5707767 L58.08,50.5817657 L78.65,30.2191283 Z" id="Rectangle-81" fill="#F1F0EE"></path>
                    <path d="M66.55,58.9663811 L55.66,90.1092382 L41.14,86.5158316 L66.55,58.9663811 Z" id="Rectangle-81-Copy" fill="#F1F0EE" transform="translate(53.845000, 74.537810) scale(-1, -1) translate(-53.845000, -74.537810) "></path>
                    <path d="M71.3748825,57.7585814 C71.3748825,53.7838926 66.5026476,50.5617706 60.4924413,50.5617706 C54.4822349,50.5617706 49.61,53.7838926 49.61,57.7585814 C49.61,61.7332702 54.4822349,64.9553921 60.4924413,64.9553921 C66.5026476,64.9553921 71.3748825,61.7332702 71.3748825,57.7585814 Z" id="Oval-59" fill="#F1F0EE"></path>
                    <path d="M65.2525573,37.5194283 L64.1411413,29.1354457 L65.2173184,29.1354457 L67.040405,38.9793258 L65.0475081,38.9793258 L57.4637451,30.5119205 L55.8801823,38.9793258 L54.2858647,38.9793258 L56.6079013,29.1354457 L57.9531227,29.1354457 L65.2104052,37.5194283 L65.2525573,37.5194283 Z" id="N" stroke="#F1F0EE" fill="#F1F0EE"></path>
                </g>
            </g>
        </g>
    </g>
</svg>