<?xml version="1.0" encoding="UTF-8" standalone="no"?>
<svg width="90px" height="90px" viewBox="0 0 90 90" version="1.1" xmlns="http://www.w3.org/2000/svg" xmlns:xlink="http://www.w3.org/1999/xlink" xmlns:sketch="http://www.bohemiancoding.com/sketch/ns">
    <!-- Generator: Sketch 3.3 (11970) - http://www.bohemiancoding.com/sketch -->
    <title>DISCOVER + show_more + Oval 11</title>
    <desc>Created with Sketch.</desc>
    <defs></defs>
    <g id="Page-1" stroke="none" stroke-width="1" fill="none" fill-rule="evenodd" sketch:type="MSPage">
        <g id="DISCOVER-+-show_more-+-Oval-11" sketch:type="MSLayerGroup" transform="translate(0.000000, 1.000000)">
            <g id="show_more-+-Oval-11" transform="translate(10.000000, 0.000000)" sketch:type="MSShapeGroup">
                <g id="show_more" transform="translate(8.000000, 21.000000)">
                    <g id="Rectangle-83-+-Group" transform="translate(15.860349, 2.160000)">
                        <path d="M5.08650027,0.394105055 C6.75035665,0.141726209 8.5569177,1.22790851e-16 10.5161011,0 C12.5352512,-1.25735415e-16 14.3922931,0.150534914 16.0980833,0.41758964 C19.1269645,2.3257761 21.1471322,5.75598264 21.1471322,9.67034483 C21.1471322,15.6624439 16.4131854,20.52 10.5735661,20.52 C4.73394679,20.52 0,15.6624439 0,9.67034483 C0,5.73987131 2.03683171,2.29754717 5.08650027,0.394105055 Z" id="Rectangle-83" fill="#4A4A4A"></path>
                        <g id="Group" transform="translate(2.413531, 1.061379)">
                            <ellipse id="Oval-59-Copy-3" fill="#FFFFFF" cx="8.04510463" cy="8.49103448" rx="7.70031443" ry="7.90137931"></ellipse>
                            <ellipse id="Oval-59-Copy-2" fill="#4A4A4A" cx="8.04510463" cy="8.37310345" rx="5.86143337" ry="6.01448276"></ellipse>
                            <path d="M8.1600347,0 L16.2051392,2.3136208 L16.2051393,12.0289655 L8.1600347,12.0289655 L8.1600347,0 Z" id="Rectangle-85" fill="#4A4A4A"></path>
                            <path d="M0,10.6137931 L16.2051393,10.6137931 L14.7110485,15.5668966 L8.10256966,17.4537931 L0,14.9772414 L0,10.6137931 Z" id="Rectangle-86" fill="#4A4A4A"></path>
                        </g>
                    </g>
                    <path d="M26.5,27 C13.25,27 0,13.5 0,13.5 C0,13.5 11.3665835,9.44138549e-16 26.5,0 C41.6334165,-9.3589277e-16 53,13.5 53,13.5 C53,13.5 39.75,27 26.5,27 Z" id="Path-Copy" stroke="#4A4A4A" stroke-width="4"></path>
                </g>
                <circle id="Oval-11" stroke="#4A4A4A" stroke-width="2" cx="34" cy="34" r="34"></circle>
            </g>
            <path d="M12.825,81.556 C12.825,82.5220048 12.6720015,83.400996 12.366,84.193 C12.0599985,84.985004 11.6280028,85.6629972 11.07,86.227 C10.5119972,86.7910028 9.84150392,87.2274985 9.0585,87.5365 C8.27549609,87.8455015 7.41000474,88 6.462,88 L1.647,88 L1.647,75.103 L6.462,75.103 C7.41000474,75.103 8.27549609,75.2574985 9.0585,75.5665 C9.84150392,75.8755015 10.5119972,76.3134972 11.07,76.8805 C11.6280028,77.4475028 12.0599985,78.126996 12.366,78.919 C12.6720015,79.711004 12.825,80.5899952 12.825,81.556 L12.825,81.556 Z M11.034,81.556 C11.034,80.763996 10.9260011,80.0560031 10.71,79.432 C10.4939989,78.8079969 10.188002,78.2800022 9.792,77.848 C9.39599802,77.4159978 8.91600282,77.0860011 8.352,76.858 C7.78799718,76.6299989 7.15800348,76.516 6.462,76.516 L3.393,76.516 L3.393,86.587 L6.462,86.587 C7.15800348,86.587 7.78799718,86.4730011 8.352,86.245 C8.91600282,86.0169989 9.39599802,85.6885021 9.792,85.2595 C10.188002,84.8304979 10.4939989,84.3040031 10.71,83.68 C10.9260011,83.0559969 11.034,82.348004 11.034,81.556 L11.034,81.556 Z M17.082,88 L15.336,88 L15.336,75.103 L17.082,75.103 L17.082,88 Z M26.973,77.119 C26.9189997,77.2090004 26.8605003,77.2764998 26.7975,77.3215 C26.7344997,77.3665002 26.6580005,77.389 26.568,77.389 C26.4659995,77.389 26.3460007,77.3380005 26.208,77.236 C26.0699993,77.1339995 25.897501,77.0215006 25.6905,76.8985 C25.483499,76.7754994 25.2345015,76.6630005 24.9435,76.561 C24.6524985,76.4589995 24.3000021,76.408 23.886,76.408 C23.495998,76.408 23.1525015,76.4604995 22.8555,76.5655 C22.5584985,76.6705005 22.309501,76.8129991 22.1085,76.993 C21.907499,77.1730009 21.7560005,77.3844988 21.654,77.6275 C21.5519995,77.8705012 21.501,78.1329986 21.501,78.415 C21.501,78.7750018 21.5894991,79.0734988 21.7665,79.3105 C21.9435009,79.5475012 22.1774985,79.7499992 22.4685,79.918 C22.7595015,80.0860008 23.0894982,80.2314994 23.4585,80.3545 C23.8275018,80.4775006 24.2054981,80.6049993 24.5925,80.737 C24.9795019,80.8690007 25.3574982,81.0174992 25.7265,81.1825 C26.0955018,81.3475008 26.4254985,81.5559987 26.7165,81.808 C27.0075015,82.0600013 27.2414991,82.3689982 27.4185,82.735 C27.5955009,83.1010018 27.684,83.5509973 27.684,84.085 C27.684,84.6490028 27.588001,85.1784975 27.396,85.6735 C27.203999,86.1685025 26.9235018,86.5989982 26.5545,86.965 C26.1854982,87.3310018 25.7325027,87.6189989 25.1955,87.829 C24.6584973,88.039001 24.0480034,88.144 23.364,88.144 C22.5239958,88.144 21.7620034,87.9925015 21.078,87.6895 C20.3939966,87.3864985 19.8090024,86.9770026 19.323,86.461 L19.827,85.633 C19.8750002,85.5669997 19.9334997,85.5115002 20.0025,85.4665 C20.0715003,85.4214998 20.1479996,85.399 20.232,85.399 C20.3100004,85.399 20.3984995,85.4304997 20.4975,85.4935 C20.5965005,85.5565003 20.7089994,85.6359995 20.835,85.732 C20.9610006,85.8280005 21.1049992,85.9329994 21.267,86.047 C21.4290008,86.1610006 21.613499,86.2659995 21.8205,86.362 C22.027501,86.4580005 22.2629987,86.5374997 22.527,86.6005 C22.7910013,86.6635003 23.0879983,86.695 23.418,86.695 C23.8320021,86.695 24.2009984,86.6380006 24.525,86.524 C24.8490016,86.4099994 25.1234989,86.249501 25.3485,86.0425 C25.5735011,85.835499 25.7459994,85.5880014 25.866,85.3 C25.9860006,85.0119986 26.046,84.6910018 26.046,84.337 C26.046,83.9469981 25.9575009,83.6275012 25.7805,83.3785 C25.6034991,83.1294988 25.3710014,82.9210008 25.083,82.753 C24.7949986,82.5849992 24.4650019,82.4425006 24.093,82.3255 C23.7209981,82.2084994 23.3430019,82.0885006 22.959,81.9655 C22.5749981,81.8424994 22.1970019,81.7000008 21.825,81.538 C21.4529981,81.3759992 21.1230014,81.1660013 20.835,80.908 C20.5469986,80.6499987 20.3145009,80.3275019 20.1375,79.9405 C19.9604991,79.5534981 19.872,79.0750029 19.872,78.505 C19.872,78.0489977 19.9604991,77.6080021 20.1375,77.182 C20.3145009,76.7559979 20.5724983,76.3780017 20.9115,76.048 C21.2505017,75.7179983 21.6674975,75.454001 22.1625,75.256 C22.6575025,75.057999 23.2259968,74.959 23.868,74.959 C24.5880036,74.959 25.243497,75.0729989 25.8345,75.301 C26.425503,75.5290011 26.9459978,75.8589978 27.396,76.291 L26.973,77.119 Z M39.195,85.336 C39.2910005,85.336 39.3749996,85.3749996 39.447,85.453 L40.14,86.2 C39.6119974,86.8120031 38.9715038,87.2889983 38.2185,87.631 C37.4654962,87.9730017 36.5550053,88.144 35.487,88.144 C34.5629954,88.144 33.7230038,87.9835016 32.967,87.6625 C32.2109962,87.3414984 31.5660027,86.8915029 31.032,86.3125 C30.4979973,85.7334971 30.0840015,85.0390041 29.79,84.229 C29.4959985,83.4189959 29.349,82.5280049 29.349,81.556 C29.349,80.5839951 29.5019985,79.693004 29.808,78.883 C30.1140015,78.072996 30.5444972,77.3770029 31.0995,76.795 C31.6545028,76.2129971 32.3189961,75.7615016 33.093,75.4405 C33.8670039,75.1194984 34.7219953,74.959 35.658,74.959 C36.5760046,74.959 37.3859965,75.1059985 38.088,75.4 C38.7900035,75.6940015 39.4079973,76.0929975 39.942,76.597 L39.366,77.398 C39.3299998,77.4580003 39.2835003,77.5074998 39.2265,77.5465 C39.1694997,77.5855002 39.0930005,77.605 38.997,77.605 C38.8889995,77.605 38.7570008,77.5465006 38.601,77.4295 C38.4449992,77.3124994 38.2410013,77.1820007 37.989,77.038 C37.7369987,76.8939993 37.4220019,76.7635006 37.044,76.6465 C36.6659981,76.5294994 36.2010028,76.471 35.649,76.471 C34.9829967,76.471 34.3740028,76.5864988 33.822,76.8175 C33.2699972,77.0485012 32.794502,77.3829978 32.3955,77.821 C31.996498,78.2590022 31.6860011,78.7929968 31.464,79.423 C31.2419989,80.0530031 31.131,80.763996 31.131,81.556 C31.131,82.360004 31.2464988,83.0769969 31.4775,83.707 C31.7085012,84.3370032 32.023498,84.8694978 32.4225,85.3045 C32.821502,85.7395022 33.2924973,86.0709989 33.8355,86.299 C34.3785027,86.5270011 34.9649968,86.641 35.595,86.641 C35.9790019,86.641 36.3254985,86.6185002 36.6345,86.5735 C36.9435015,86.5284998 37.2284987,86.4580005 37.4895,86.362 C37.7505013,86.2659995 37.9934989,86.1445007 38.2185,85.9975 C38.4435011,85.8504993 38.6669989,85.675001 38.889,85.471 C38.9910005,85.3809995 39.0929995,85.336 39.195,85.336 L39.195,85.336 Z M53.829,81.556 C53.829,82.5220048 53.6760015,83.408496 53.37,84.2155 C53.0639985,85.022504 52.6320028,85.7169971 52.074,86.299 C51.5159972,86.8810029 50.8455039,87.3324984 50.0625,87.6535 C49.2794961,87.9745016 48.4140047,88.135 47.466,88.135 C46.5179953,88.135 45.6540039,87.9745016 44.874,87.6535 C44.0939961,87.3324984 43.4250028,86.8810029 42.867,86.299 C42.3089972,85.7169971 41.8770015,85.022504 41.571,84.2155 C41.2649985,83.408496 41.112,82.5220048 41.112,81.556 C41.112,80.5899952 41.2649985,79.703504 41.571,78.8965 C41.8770015,78.089496 42.3089972,77.3935029 42.867,76.8085 C43.4250028,76.2234971 44.0939961,75.7690016 44.874,75.445 C45.6540039,75.1209984 46.5179953,74.959 47.466,74.959 C48.4140047,74.959 49.2794961,75.1209984 50.0625,75.445 C50.8455039,75.7690016 51.5159972,76.2234971 52.074,76.8085 C52.6320028,77.3935029 53.0639985,78.089496 53.37,78.8965 C53.6760015,79.703504 53.829,80.5899952 53.829,81.556 L53.829,81.556 Z M52.038,81.556 C52.038,80.763996 51.9300011,80.0530031 51.714,79.423 C51.4979989,78.7929968 51.192002,78.2605022 50.796,77.8255 C50.399998,77.3904978 49.9200028,77.0560012 49.356,76.822 C48.7919972,76.5879988 48.1620035,76.471 47.466,76.471 C46.7759966,76.471 46.1490028,76.5879988 45.585,76.822 C45.0209972,77.0560012 44.539502,77.3904978 44.1405,77.8255 C43.741498,78.2605022 43.4340011,78.7929968 43.218,79.423 C43.0019989,80.0530031 42.894,80.763996 42.894,81.556 C42.894,82.348004 43.0019989,83.0574969 43.218,83.6845 C43.4340011,84.3115031 43.741498,84.8424978 44.1405,85.2775 C44.539502,85.7125022 45.0209972,86.0454988 45.585,86.2765 C46.1490028,86.5075012 46.7759966,86.623 47.466,86.623 C48.1620035,86.623 48.7919972,86.5075012 49.356,86.2765 C49.9200028,86.0454988 50.399998,85.7125022 50.796,85.2775 C51.192002,84.8424978 51.4979989,84.3115031 51.714,83.6845 C51.9300011,83.0574969 52.038,82.348004 52.038,81.556 L52.038,81.556 Z M66.447,75.103 L61.191,88 L59.625,88 L54.369,75.103 L55.764,75.103 C55.9200008,75.103 56.0459995,75.1419996 56.142,75.22 C56.2380005,75.2980004 56.3099998,75.3969994 56.358,75.517 L59.994,84.616 C60.0720004,84.820001 60.1484996,85.0419988 60.2235,85.282 C60.2985004,85.5220012 60.3659997,85.7739987 60.426,86.038 C60.4860003,85.7739987 60.5489997,85.5220012 60.615,85.282 C60.6810003,85.0419988 60.7529996,84.820001 60.831,84.616 L64.458,75.517 C64.4940002,75.4149995 64.5644995,75.3205004 64.6695,75.2335 C64.7745005,75.1464996 64.9019992,75.103 65.052,75.103 L66.447,75.103 Z M76.104,86.578 L76.095,88 L68.148,88 L68.148,75.103 L76.095,75.103 L76.095,76.525 L69.894,76.525 L69.894,80.809 L74.916,80.809 L74.916,82.177 L69.894,82.177 L69.894,86.578 L76.104,86.578 Z M82.116,81.349 C82.6200025,81.349 83.0654981,81.2875006 83.4525,81.1645 C83.8395019,81.0414994 84.1634987,80.8675011 84.4245,80.6425 C84.6855013,80.4174989 84.8819993,80.1490016 85.014,79.837 C85.1460007,79.5249984 85.212,79.1800019 85.212,78.802 C85.212,78.0339962 84.9600025,77.4550019 84.456,77.065 C83.9519975,76.674998 83.196005,76.48 82.188,76.48 L80.28,76.48 L80.28,81.349 L82.116,81.349 Z M88.074,88 L86.526,88 C86.2079984,88 85.9740007,87.8770012 85.824,87.631 L82.476,83.023 C82.3739995,82.8789993 82.2645006,82.7755003 82.1475,82.7125 C82.0304994,82.6494997 81.8490012,82.618 81.603,82.618 L80.28,82.618 L80.28,88 L78.543,88 L78.543,75.103 L82.188,75.103 C83.0040041,75.103 83.708997,75.1854992 84.303,75.3505 C84.897003,75.5155008 85.3874981,75.7539984 85.7745,76.066 C86.1615019,76.3780016 86.4479991,76.7544978 86.634,77.1955 C86.8200009,77.6365022 86.913,78.1299973 86.913,78.676 C86.913,79.1320023 86.8410007,79.557998 86.697,79.954 C86.5529993,80.350002 86.3445014,80.7054984 86.0715,81.0205 C85.7984986,81.3355016 85.465502,81.6039989 85.0725,81.826 C84.679498,82.0480011 84.2340025,82.2159994 83.736,82.33 C83.9580011,82.4560006 84.1499992,82.6389988 84.312,82.879 L88.074,88 Z" id="DISCOVER" fill="#3E3E3E" sketch:type="MSShapeGroup"></path>
        </g>
    </g>
</svg>