<?xml version="1.0" encoding="UTF-8" standalone="no"?>
<svg width="1024px" height="556px" viewBox="0 0 1024 556" version="1.1" xmlns="http://www.w3.org/2000/svg" xmlns:xlink="http://www.w3.org/1999/xlink" xmlns:sketch="http://www.bohemiancoding.com/sketch/ns">
    <!-- Generator: Sketch 3.3 (11970) - http://www.bohemiancoding.com/sketch -->
    <title>Rectangle 38 + Group Copy</title>
    <desc>Created with Sketch.</desc>
    <defs></defs>
    <g id="Page-1" stroke="none" stroke-width="1" fill="none" fill-rule="evenodd" sketch:type="MSPage">
        <g id="Rectangle-38-+-Group-Copy" sketch:type="MSLayerGroup">
            <rect id="Rectangle-38" opacity="0.263817631" fill="#CED1D3" sketch:type="MSShapeGroup" x="0" y="0" width="1024" height="556"></rect>
            <g id="effectief-leiderschap-copy" transform="translate(411.000000, 84.000000)" sketch:type="MSShapeGroup">
                <circle id="Oval-5-Copy-2" fill="#F48267" cx="100" cy="100" r="100"></circle>
                <path d="M135.641359,193.461734 C173.270759,179.103493 200,142.673221 200,100 C200,92.6001781 199.196255,85.3880809 197.671303,78.4462463 L102,19 L98,97 L70,155 L135.641359,193.461734 Z" id="Oval-7" fill="#BE634E"></path>
                <path d="M106.76171,54 C106.862818,53.7894097 106.95289,53.5753051 107.030998,53.35834 L111.969002,39.64166 C113.087504,36.5347125 111.310708,34 107.993298,34 L92.0067025,34 C88.6847577,34 86.9093086,36.5258572 88.0309976,39.64166 L92.9690024,53.35834 C93.0470857,53.5752381 93.1372354,53.7893473 93.2385119,54 L85.0074199,54 C83.3455393,54 82,55.3431458 82,57 C82,58.6534829 83.3464677,60 85.0074199,60 L114.99258,60 C116.654461,60 118,58.6568542 118,57 C118,55.3465171 116.653532,54 114.99258,54 L106.76171,54 Z M101.693417,25.2419167 L101.794518,28.1300542 L101.859977,30 L102.495261,30 C103.326305,30 104,30.6657972 104,31.5 C104,32.152724 103.585111,32.7080731 103,32.9142822 L103,32.9142822 L103,34 L97,34 L97,32.914149 C96.4172141,32.708662 96,32.1564772 96,31.5 C96,30.6715729 96.6683155,30 97.5047388,30 L98.1455153,30 L98.2175951,28.0186362 L98.3186717,25.2401898 L93,26 L93,22 L98.0987704,22.7283958 L97,18 L103,18 L101.880618,22.7313403 L107,22 L107,26 L101.693417,25.2419167 L101.693417,25.2419167 Z M82,119 C90,101 88,60 88,60 L112,60 C112,60 111,99 118,119 C125,139 130,136 130,136 L70,136 C70,136 74,137 82,119 Z M70,144 L130,144 L130,155 L70,155 L70,144 Z M65,140 C65,137.790861 66.800691,136 69.0021821,136 L130.997818,136 C133.208162,136 135,137.795356 135,140 C135,142.209139 133.199309,144 130.997818,144 L69.0021821,144 C66.791838,144 65,142.204644 65,140 Z" id="Rectangle-22" fill="#4A4A4A"></path>
            </g>
            <path d="M346.24,357 L346.24,351.92 L334.88,351.92 L334.88,344.72 L342.84,344.72 L342.84,339.68 L334.88,339.68 L334.88,334.08 L346.24,334.08 L346.24,329 L329.2,329 L329.2,357 L346.24,357 Z M362.04,342.44 L362.04,337.48 L357.92,337.48 L357.92,334.36 C357.92,332.64 358.64,331.64 359.92,331.64 C360.36,331.64 360.8,331.76 361.16,331.96 L363,327.2 C362,326.76 360.8,326.52 359.44,326.52 C355.56,326.52 352.24,329.24 352.24,333.96 L352.24,337.48 L349.44,337.48 L349.44,342.44 L352.24,342.44 L352.24,357 L357.92,357 L357.92,342.44 L362.04,342.44 Z M376.8,342.44 L376.8,337.48 L372.68,337.48 L372.68,334.36 C372.68,332.64 373.4,331.64 374.68,331.64 C375.12,331.64 375.56,331.76 375.92,331.96 L377.76,327.2 C376.76,326.76 375.56,326.52 374.2,326.52 C370.32,326.52 367,329.24 367,333.96 L367,337.48 L364.2,337.48 L364.2,342.44 L367,342.44 L367,357 L372.68,357 L372.68,342.44 L376.8,342.44 Z M398.48,348.44 L398.48,347.76 C398.48,341.76 395.88,337.04 389.28,337.04 C383.28,337.04 379.52,341.64 379.52,347.2 C379.52,353.2 383.72,357.4 389.44,357.4 C393.88,357.4 396,355.96 398.08,353.16 L394.36,350.48 C393.4,351.88 391.92,352.88 389.76,352.88 C387.56,352.88 385.56,351.68 385.16,348.44 L398.48,348.44 Z M389.24,341.6 C390.96,341.6 392.68,342.76 393.04,345 L385.32,345 C385.88,342.72 387.44,341.6 389.24,341.6 L389.24,341.6 Z M419,340.48 C417.12,338.36 414.68,337.04 411.6,337.04 C405.76,337.04 401.6,341.52 401.6,347.2 C401.6,352.88 405.76,357.36 411.64,357.36 C415.08,357.36 417.48,355.92 419.48,353.2 L415.28,350 C414.44,351.2 413.24,352.08 411.64,352.08 C409.04,352.08 407.2,350.2 407.2,347.2 C407.2,344.32 409.04,342.24 411.64,342.24 C413.24,342.24 414.12,343 415.12,344.08 L419,340.48 Z M422.2,337.48 L422.2,342.68 L424.92,342.68 L424.92,357 L430.52,357 L430.52,342.68 L433.28,342.68 L433.28,337.48 L430.52,337.48 L430.52,330.52 L424.92,330.52 L424.92,337.48 L422.2,337.48 Z M436.64,331.44 C436.64,333.44 438.32,335.12 440.32,335.12 C442.32,335.12 444,333.44 444,331.44 C444,329.44 442.32,327.76 440.32,327.76 C438.32,327.76 436.64,329.44 436.64,331.44 L436.64,331.44 Z M443.12,357 L443.12,337.48 L437.4,337.48 L437.4,357 L443.12,357 Z M466.32,348.44 L466.32,347.76 C466.32,341.76 463.72,337.04 457.12,337.04 C451.12,337.04 447.36,341.64 447.36,347.2 C447.36,353.2 451.56,357.4 457.28,357.4 C461.72,357.4 463.84,355.96 465.92,353.16 L462.2,350.48 C461.24,351.88 459.76,352.88 457.6,352.88 C455.4,352.88 453.4,351.68 453,348.44 L466.32,348.44 Z M457.08,341.6 C458.8,341.6 460.52,342.76 460.88,345 L453.16,345 C453.72,342.72 455.28,341.6 457.08,341.6 L457.08,341.6 Z M481.08,342.44 L481.08,337.48 L476.96,337.48 L476.96,334.36 C476.96,332.64 477.68,331.64 478.96,331.64 C479.4,331.64 479.84,331.76 480.2,331.96 L482.04,327.2 C481.04,326.76 479.84,326.52 478.48,326.52 C474.6,326.52 471.28,329.24 471.28,333.96 L471.28,337.48 L468.48,337.48 L468.48,342.44 L471.28,342.44 L471.28,357 L476.96,357 L476.96,342.44 L481.08,342.44 Z M512.4,357 L512.4,351.8 L502.52,351.8 L502.52,329 L496.84,329 L496.84,357 L512.4,357 Z M532.32,348.44 L532.32,347.76 C532.32,341.76 529.72,337.04 523.12,337.04 C517.12,337.04 513.36,341.64 513.36,347.2 C513.36,353.2 517.56,357.4 523.28,357.4 C527.72,357.4 529.84,355.96 531.92,353.16 L528.2,350.48 C527.24,351.88 525.76,352.88 523.6,352.88 C521.4,352.88 519.4,351.68 519,348.44 L532.32,348.44 Z M523.08,341.6 C524.8,341.6 526.52,342.76 526.88,345 L519.16,345 C519.72,342.72 521.28,341.6 523.08,341.6 L523.08,341.6 Z M535.68,331.44 C535.68,333.44 537.36,335.12 539.36,335.12 C541.36,335.12 543.04,333.44 543.04,331.44 C543.04,329.44 541.36,327.76 539.36,327.76 C537.36,327.76 535.68,329.44 535.68,331.44 L535.68,331.44 Z M542.16,357 L542.16,337.48 L536.44,337.48 L536.44,357 L542.16,357 Z M566.2,357 L566.2,327 L560.6,327 L560.6,339.44 C559.08,337.84 557.08,337.04 554.92,337.04 C549.52,337.04 546.44,341.96 546.44,347.16 C546.44,352.44 549.4,357.4 554.88,357.4 C557.16,357.4 559.24,356.28 560.8,354.44 L560.8,357 L566.2,357 Z M556.36,352.44 C553.48,352.44 552,350.08 552,347.24 C552,344.36 553.44,342.04 556.36,342.04 C558.96,342.04 560.68,344.2 560.68,347.2 C560.68,349.88 558.92,352.44 556.36,352.44 L556.36,352.44 Z M589.08,348.44 L589.08,347.76 C589.08,341.76 586.48,337.04 579.88,337.04 C573.88,337.04 570.12,341.64 570.12,347.2 C570.12,353.2 574.32,357.4 580.04,357.4 C584.48,357.4 586.6,355.96 588.68,353.16 L584.96,350.48 C584,351.88 582.52,352.88 580.36,352.88 C578.16,352.88 576.16,351.68 575.76,348.44 L589.08,348.44 Z M579.84,341.6 C581.56,341.6 583.28,342.76 583.64,345 L575.92,345 C576.48,342.72 578.04,341.6 579.84,341.6 L579.84,341.6 Z M598.6,347.36 C598.6,344.16 600.92,342.48 603.84,342.48 L603.84,337 C601.28,337 599.52,338.6 598.4,340.72 C598.52,339.96 598.6,339.24 598.6,338.8 L598.6,337.48 L593,337.48 L593,357 L598.6,357 L598.6,347.36 Z M606.64,354.12 C608.76,356.4 611.64,357.4 615.16,357.4 C619.56,357.4 622.72,354.84 622.72,351.16 C622.72,347.44 618.92,345.6 615.96,344.72 C614.2,344.2 613.08,343.72 613.08,342.76 C613.08,342 613.84,341.52 614.88,341.52 C616.04,341.52 617.6,342.36 618.44,343.28 L621.56,339.92 C619.8,338.08 617.72,337.08 614.76,337.08 C611.48,337.08 607.84,339.2 607.84,342.96 C607.84,346.92 611.6,348.6 614.64,349.48 C616.28,349.96 617.28,350.44 617.28,351.44 C617.28,352.16 616.4,352.64 615.2,352.64 C613.32,352.64 611.16,352 609.8,350.44 L606.64,354.12 Z M643.24,340.48 C641.36,338.36 638.92,337.04 635.84,337.04 C630,337.04 625.84,341.52 625.84,347.2 C625.84,352.88 630,357.36 635.88,357.36 C639.32,357.36 641.72,355.92 643.72,353.2 L639.52,350 C638.68,351.2 637.48,352.08 635.88,352.08 C633.28,352.08 631.44,350.2 631.44,347.2 C631.44,344.32 633.28,342.24 635.88,342.24 C637.48,342.24 638.36,343 639.36,344.08 L643.24,340.48 Z M653.24,357 L653.24,345.76 C653.48,342.96 655.16,341.6 656.88,341.6 C658.76,341.6 660.48,343 660.48,345.72 L660.48,357 L666.12,357 L666.12,345.4 C666.12,340.16 663.08,337 659.04,337 C656.36,337 654.4,338.32 653.12,340.16 C653.2,339.64 653.24,339.12 653.24,338.8 L653.24,327 L647.64,327 L647.64,357 L653.24,357 Z M691.04,357 L691.04,351.92 L690.24,351.92 C689.52,351.92 689.04,351.48 689.04,350.76 L689.04,344.88 C689.04,340.2 685.72,336.96 680.28,336.96 C674.76,336.96 672.52,340.96 672.52,340.96 L676.44,343.88 C677.24,342.6 678.48,341.92 680,341.92 C682.16,341.92 683.48,343.2 683.48,345.12 L683.48,345.76 C682,345.48 680.4,345.28 678.76,345.28 C673.32,345.28 670.68,348.44 670.68,351.68 C670.68,354.6 672.88,357.4 677.2,357.4 C680.68,357.4 683.04,355.56 684.16,353.68 C685.04,355.72 686.68,357 689.08,357 L691.04,357 Z M678.64,353 C677.16,353 676.36,352.28 676.36,351.2 C676.36,349.6 678.12,348.84 680.4,348.84 C681.16,348.84 682.44,349.04 683.48,349.24 C682.76,351.36 681,353 678.64,353 L678.64,353 Z M699.8,367 L699.8,354.44 C701.32,356.28 703.44,357.4 705.72,357.4 C711.2,357.4 714.16,352.44 714.16,347.16 C714.16,341.96 711.08,337.04 705.68,337.04 C703.52,337.04 701.52,337.84 700,339.44 L700,337.48 L694.4,337.48 L694.4,367 L699.8,367 Z M704.24,352.44 C701.68,352.44 699.92,349.88 699.92,347.2 C699.92,344.2 701.64,342.04 704.24,342.04 C707.16,342.04 708.6,344.36 708.6,347.24 C708.6,350.08 707.12,352.44 704.24,352.44 L704.24,352.44 Z" id="Effectief-Leiderscha" fill="#3E3E3E" sketch:type="MSShapeGroup"></path>
        </g>
    </g>
</svg>