<?xml version="1.0" encoding="UTF-8" standalone="no"?>
<svg width="247px" height="247px" viewBox="0 0 247 247" version="1.1" xmlns="http://www.w3.org/2000/svg" xmlns:xlink="http://www.w3.org/1999/xlink" xmlns:sketch="http://www.bohemiancoding.com/sketch/ns">
    <!-- Generator: Sketch 3.3 (11970) - http://www.bohemiancoding.com/sketch -->
    <title>Group</title>
    <desc>Created with Sketch.</desc>
    <defs>
        <linearGradient x1="50%" y1="0%" x2="50%" y2="100%" id="linearGradient-1">
            <stop stop-color="#AAABA6" offset="0%"></stop>
            <stop stop-color="#ECE9E4" offset="100%"></stop>
        </linearGradient>
        <filter x="-50%" y="-50%" width="200%" height="200%" filterUnits="objectBoundingBox" id="filter-2">
            <feGaussianBlur stdDeviation="3 0" in="SourceGraphic" result="blur"></feGaussianBlur>
        </filter>
        <filter x="-50%" y="-50%" width="200%" height="200%" filterUnits="objectBoundingBox" id="filter-3">
            <feGaussianBlur stdDeviation="3 0" in="SourceGraphic" result="blur"></feGaussianBlur>
        </filter>
        <linearGradient x1="50%" y1="0%" x2="50%" y2="100%" id="linearGradient-4">
            <stop stop-color="#2C7FBB" offset="0%"></stop>
            <stop stop-color="#19486A" offset="100%"></stop>
        </linearGradient>
        <linearGradient x1="50%" y1="0%" x2="50%" y2="100%" id="linearGradient-5">
            <stop stop-color="#2B7DB8" offset="0%"></stop>
            <stop stop-color="#19496B" offset="100%"></stop>
        </linearGradient>
    </defs>
    <g id="Page-1" stroke="none" stroke-width="1" fill="none" fill-rule="evenodd" sketch:type="MSPage">
        <g id="Group" sketch:type="MSLayerGroup" transform="translate(7.000000, 39.000000)">
            <rect id="Rectangle-39-Copy-3" fill="url(#linearGradient-1)" filter="url(#filter-2)" sketch:type="MSShapeGroup" x="41" y="33" width="66" height="119"></rect>
            <rect id="Rectangle-39-Copy-4" fill="url(#linearGradient-1)" filter="url(#filter-3)" sketch:type="MSShapeGroup" x="120" y="35" width="66" height="119"></rect>
            <path d="M0.5,167.5 L215.5,167.5" id="Line-Copy-3" stroke="#979797" stroke-linecap="square" opacity="0.40076959" sketch:type="MSShapeGroup"></path>
            <g id="chat" transform="translate(118.000000, 0.000000)" sketch:type="MSShapeGroup">
                <circle id="Oval-40-Copy-3" fill="url(#linearGradient-4)" cx="35" cy="35" r="35"></circle>
                <path d="M46.0417614,47.9554117 C41.2552573,52.0455954 34.9876543,55.8815217 34.9876543,55.8815217 L34.9876543,51.1200879 C34.9085501,51.1209162 34.8293311,51.1213315 34.75,51.1213315 C24.1185186,51.1213315 15.5,43.6620974 15.5,34.4606658 C15.5,25.2592341 24.1185186,17.8 34.75,17.8 C45.3814814,17.8 54,25.2592341 54,34.4606658 C54,40.0111378 50.8639595,44.9276724 46.0417614,47.9554117 Z" id="Rectangle-64" fill="#E8EEF5"></path>
            </g>
            <g id="email" transform="translate(38.000000, 0.000000)" sketch:type="MSShapeGroup">
                <circle id="Oval-40-Copy-4" fill="url(#linearGradient-5)" cx="35" cy="35" r="35"></circle>
                <path d="M14.35,23.8 L30.1,35 L14.35,46.2 L14.35,23.8 Z" id="Rectangle-68" fill="#E8EEF5"></path>
                <path d="M39.9,23.1 L55.65,35 L39.9,46.55 L39.9,23.1 Z" id="Rectangle-68-Copy" fill="#E8EEF5" transform="translate(47.775000, 34.825000) scale(-1, 1) translate(-47.775000, -34.825000) "></path>
                <path d="M30.45,46.9 L14.35,35.35 L55.3,35.35 L39.55,46.9 L35,43.75 L30.45,46.9 Z" id="Rectangle-67" fill="#E8EEF5" transform="translate(34.825000, 41.125000) scale(1, -1) translate(-34.825000, -41.125000) "></path>
                <path d="M14.35,23.1 L54.95,23.1 L35,35.7 L14.35,23.1 Z" id="Rectangle-70" fill="#E8EEF5"></path>
            </g>
            <path d="M32.288,120.296 L32.288,119.684 C32.288,114.284 29.948,110.036 24.008,110.036 C18.608,110.036 15.224,114.176 15.224,119.18 C15.224,124.58 19.004,128.36 24.152,128.36 C28.148,128.36 30.056,127.064 31.928,124.544 L28.58,122.132 C27.716,123.392 26.384,124.292 24.44,124.292 C22.46,124.292 20.66,123.212 20.3,120.296 L32.288,120.296 Z M23.972,114.14 C25.52,114.14 27.068,115.184 27.392,117.2 L20.444,117.2 C20.948,115.148 22.352,114.14 23.972,114.14 L23.972,114.14 Z M41.356,128 L41.356,116.984 C41.428,115.184 42.832,114.248 44.2,114.248 C45.532,114.248 46.792,115.112 46.792,116.912 L46.792,128 L51.832,128 L51.832,117.164 C51.832,115.112 53.2,114.14 54.568,114.14 C55.936,114.14 57.304,115.112 57.304,117.02 L57.304,128 L62.344,128 L62.344,116.66 C62.344,112.448 60.148,110 56.548,110 C54.172,110 52.228,111.188 50.968,112.88 C50.14,111.188 48.592,110 46.036,110 C43.948,110 42.256,111.08 41.212,112.772 C41.284,112.232 41.356,111.656 41.356,111.332 L41.356,110.432 L36.316,110.432 L36.316,128 L41.356,128 Z M85.272,128 L85.272,123.428 L84.552,123.428 C83.904,123.428 83.472,123.032 83.472,122.384 L83.472,117.092 C83.472,112.88 80.484,109.964 75.588,109.964 C70.62,109.964 68.604,113.564 68.604,113.564 L72.132,116.192 C72.852,115.04 73.968,114.428 75.336,114.428 C77.28,114.428 78.468,115.58 78.468,117.308 L78.468,117.884 C77.136,117.632 75.696,117.452 74.22,117.452 C69.324,117.452 66.948,120.296 66.948,123.212 C66.948,125.84 68.928,128.36 72.816,128.36 C75.948,128.36 78.072,126.704 79.08,125.012 C79.872,126.848 81.348,128 83.508,128 L85.272,128 Z M74.112,124.4 C72.78,124.4 72.06,123.752 72.06,122.78 C72.06,121.34 73.644,120.656 75.696,120.656 C76.38,120.656 77.532,120.836 78.468,121.016 C77.82,122.924 76.236,124.4 74.112,124.4 L74.112,124.4 Z M88.292,104.996 C88.292,106.796 89.804,108.308 91.604,108.308 C93.404,108.308 94.916,106.796 94.916,104.996 C94.916,103.196 93.404,101.684 91.604,101.684 C89.804,101.684 88.292,103.196 88.292,104.996 L88.292,104.996 Z M94.124,128 L94.124,110.432 L88.976,110.432 L88.976,128 L94.124,128 Z M104.632,128 L104.632,101 L99.52,101 L99.52,128 L104.632,128 Z M128.924,119.864 L128.924,115.976 L120.176,115.976 L120.176,119.864 L128.924,119.864 Z M159.408,113.132 C157.716,111.224 155.52,110.036 152.748,110.036 C147.492,110.036 143.748,114.068 143.748,119.18 C143.748,124.292 147.492,128.324 152.784,128.324 C155.88,128.324 158.04,127.028 159.84,124.58 L156.06,121.7 C155.304,122.78 154.224,123.572 152.784,123.572 C150.444,123.572 148.788,121.88 148.788,119.18 C148.788,116.588 150.444,114.716 152.784,114.716 C154.224,114.716 155.016,115.4 155.916,116.372 L159.408,113.132 Z M168.908,128 L168.908,117.884 C169.124,115.364 170.636,114.14 172.184,114.14 C173.876,114.14 175.424,115.4 175.424,117.848 L175.424,128 L180.5,128 L180.5,117.56 C180.5,112.844 177.764,110 174.128,110 C171.716,110 169.952,111.188 168.8,112.844 C168.872,112.376 168.908,111.908 168.908,111.62 L168.908,101 L163.868,101 L163.868,128 L168.908,128 Z M203.428,128 L203.428,123.428 L202.708,123.428 C202.06,123.428 201.628,123.032 201.628,122.384 L201.628,117.092 C201.628,112.88 198.64,109.964 193.744,109.964 C188.776,109.964 186.76,113.564 186.76,113.564 L190.288,116.192 C191.008,115.04 192.124,114.428 193.492,114.428 C195.436,114.428 196.624,115.58 196.624,117.308 L196.624,117.884 C195.292,117.632 193.852,117.452 192.376,117.452 C187.48,117.452 185.104,120.296 185.104,123.212 C185.104,125.84 187.084,128.36 190.972,128.36 C194.104,128.36 196.228,126.704 197.236,125.012 C198.028,126.848 199.504,128 201.664,128 L203.428,128 Z M192.268,124.4 C190.936,124.4 190.216,123.752 190.216,122.78 C190.216,121.34 191.8,120.656 193.852,120.656 C194.536,120.656 195.688,120.836 196.624,121.016 C195.976,122.924 194.392,124.4 192.268,124.4 L192.268,124.4 Z M205.872,110.432 L205.872,115.112 L208.32,115.112 L208.32,128 L213.36,128 L213.36,115.112 L215.844,115.112 L215.844,110.432 L213.36,110.432 L213.36,104.168 L208.32,104.168 L208.32,110.432 L205.872,110.432 Z" id="email---chat" fill="#3E3E3E" sketch:type="MSShapeGroup"></path>
        </g>
    </g>
</svg>