<?xml version="1.0" encoding="UTF-8" standalone="no"?>
<svg width="247px" height="247px" viewBox="0 0 247 247" version="1.1" xmlns="http://www.w3.org/2000/svg" xmlns:xlink="http://www.w3.org/1999/xlink" xmlns:sketch="http://www.bohemiancoding.com/sketch/ns">
    <!-- Generator: Sketch 3.3 (11970) - http://www.bohemiancoding.com/sketch -->
    <title>Group</title>
    <desc>Created with Sketch.</desc>
    <defs>
        <linearGradient x1="50%" y1="0%" x2="50%" y2="100%" id="linearGradient-1">
            <stop stop-color="#AAABA6" offset="0%"></stop>
            <stop stop-color="#ECE9E4" offset="100%"></stop>
        </linearGradient>
        <filter x="-50%" y="-50%" width="200%" height="200%" filterUnits="objectBoundingBox" id="filter-2">
            <feGaussianBlur stdDeviation="3 0" in="SourceGraphic" result="blur"></feGaussianBlur>
        </filter>
    </defs>
    <g id="Page-1" stroke="none" stroke-width="1" fill="none" fill-rule="evenodd" sketch:type="MSPage">
        <g id="Group" sketch:type="MSLayerGroup" transform="translate(20.000000, 37.000000)">
            <path d="M0.5,166.5 L215.5,166.5" id="Line" stroke="#979797" stroke-linecap="square" opacity="0.40076959" sketch:type="MSShapeGroup"></path>
            <rect id="Rectangle-39-Copy-5" fill="url(#linearGradient-1)" filter="url(#filter-2)" sketch:type="MSShapeGroup" x="66" y="31" width="66" height="119"></rect>
            <g id="facetoface" transform="translate(64.000000, 0.000000)" sketch:type="MSShapeGroup">
                <circle id="Oval-40-Copy-5" fill="#F48267" cx="35" cy="35" r="35"></circle>
                <g id="personal-coaching-copy-2" transform="translate(7.000000, 13.300000)">
                    <path d="M48.2985496,50.2159901 C56.0081489,44.7181963 61.3937493,36.1719095 62.6955491,26.3369311 L15.75,0.7 L10.15,17.15 L0.35,24.15 L48.2985496,50.2159901 Z" id="Oval-1-Copy-2" fill="#BE634E"></path>
                    <path d="M15.7546325,15.8568245 L15.9684758,17.7814136 C17.8082805,17.9133546 19.560454,18.1864204 21.0324303,18.6344132 C25.7945582,20.0837565 25.1734111,24.0176882 25.1734111,24.0176882 L25.1734118,37.4499996 L0.327526754,24.0176882 C0.327526754,24.0176882 0.361517244,19.7022307 4.46850747,18.6344132 C5.83661062,18.2787064 7.60283958,17.9991547 9.52616726,17.8380669 L9.52616726,17.8380669 L9.7463053,15.8568245 C7.43332105,14.5695879 6.53899783,11.6622737 6.53899783,8.28196144 C6.53899783,3.70796044 8.60948819,4.96127755e-15 12.7504689,5.32907052e-15 C16.8914496,5.69686349e-15 18.96194,3.70796044 18.96194,8.28196144 C18.96194,11.6622737 18.0676168,14.5695879 15.7546325,15.8568245 Z" id="Rectangle-1" fill="#ECE9E4"></path>
                    <path d="M43.4271058,30.9068245 L43.640949,32.8314136 C45.4807537,32.9633546 47.2329273,33.2364204 48.7049036,33.6844132 C53.4670314,35.1337565 52.8458843,39.0676882 52.8458843,39.0676882 L52.8458851,46.5499996 L48.3,50.0499996 L28,39.0676882 C28,39.0676882 28.0339905,34.7522307 32.1409807,33.6844132 C33.5090839,33.3287064 35.2753128,33.0491547 37.1986405,32.8880669 L37.1986405,32.8880669 L37.4187785,30.9068245 C35.1057943,29.6195879 34.2114711,26.7122737 34.2114711,23.3319614 C34.2114711,18.7579604 36.2819614,15.05 40.4229422,15.05 C44.5639229,15.05 46.6344132,18.7579604 46.6344132,23.3319614 C46.6344132,26.7122737 45.74009,29.6195879 43.4271058,30.9068245 Z" id="Rectangle-1-Copy-3" fill="#ECE9E4"></path>
                </g>
            </g>
            <path d="M13.36,113.896 L13.36,109.432 L9.652,109.432 L9.652,106.624 C9.652,105.076 10.3,104.176 11.452,104.176 C11.848,104.176 12.244,104.284 12.568,104.464 L14.224,100.18 C13.324,99.784 12.244,99.568 11.02,99.568 C7.528,99.568 4.54,102.016 4.54,106.264 L4.54,109.432 L2.02,109.432 L2.02,113.896 L4.54,113.896 L4.54,127 L9.652,127 L9.652,113.896 L13.36,113.896 Z M35.208,127 L35.208,122.428 L34.488,122.428 C33.84,122.428 33.408,122.032 33.408,121.384 L33.408,116.092 C33.408,111.88 30.42,108.964 25.524,108.964 C20.556,108.964 18.54,112.564 18.54,112.564 L22.068,115.192 C22.788,114.04 23.904,113.428 25.272,113.428 C27.216,113.428 28.404,114.58 28.404,116.308 L28.404,116.884 C27.072,116.632 25.632,116.452 24.156,116.452 C19.26,116.452 16.884,119.296 16.884,122.212 C16.884,124.84 18.864,127.36 22.752,127.36 C25.884,127.36 28.008,125.704 29.016,124.012 C29.808,125.848 31.284,127 33.444,127 L35.208,127 Z M24.048,123.4 C22.716,123.4 21.996,122.752 21.996,121.78 C21.996,120.34 23.58,119.656 25.632,119.656 C26.316,119.656 27.468,119.836 28.404,120.016 C27.756,121.924 26.172,123.4 24.048,123.4 L24.048,123.4 Z M53.672,112.132 C51.98,110.224 49.784,109.036 47.012,109.036 C41.756,109.036 38.012,113.068 38.012,118.18 C38.012,123.292 41.756,127.324 47.048,127.324 C50.144,127.324 52.304,126.028 54.104,123.58 L50.324,120.7 C49.568,121.78 48.488,122.572 47.048,122.572 C44.708,122.572 43.052,120.88 43.052,118.18 C43.052,115.588 44.708,113.716 47.048,113.716 C48.488,113.716 49.28,114.4 50.18,115.372 L53.672,112.132 Z M74.116,119.296 L74.116,118.684 C74.116,113.284 71.776,109.036 65.836,109.036 C60.436,109.036 57.052,113.176 57.052,118.18 C57.052,123.58 60.832,127.36 65.98,127.36 C69.976,127.36 71.884,126.064 73.756,123.544 L70.408,121.132 C69.544,122.392 68.212,123.292 66.268,123.292 C64.288,123.292 62.488,122.212 62.128,119.296 L74.116,119.296 Z M65.8,113.14 C67.348,113.14 68.896,114.184 69.22,116.2 L62.272,116.2 C62.776,114.148 64.18,113.14 65.8,113.14 L65.8,113.14 Z M86.028,118.864 L86.028,114.976 L77.28,114.976 L77.28,118.864 L86.028,118.864 Z M89.192,109.432 L89.192,114.112 L91.64,114.112 L91.64,127 L96.68,127 L96.68,114.112 L99.164,114.112 L99.164,109.432 L96.68,109.432 L96.68,103.168 L91.64,103.168 L91.64,109.432 L89.192,109.432 Z M111.292,127.324 C116.44,127.324 120.472,123.4 120.472,118.18 C120.472,112.96 116.44,109.036 111.292,109.036 C106.144,109.036 102.112,112.96 102.112,118.18 C102.112,123.4 106.144,127.324 111.292,127.324 L111.292,127.324 Z M111.292,122.86 C108.772,122.86 107.008,120.88 107.008,118.18 C107.008,115.516 108.7,113.536 111.292,113.536 C113.848,113.536 115.54,115.516 115.54,118.18 C115.54,120.88 113.848,122.86 111.292,122.86 L111.292,122.86 Z M132.384,118.864 L132.384,114.976 L123.636,114.976 L123.636,118.864 L132.384,118.864 Z M146.384,113.896 L146.384,109.432 L142.676,109.432 L142.676,106.624 C142.676,105.076 143.324,104.176 144.476,104.176 C144.872,104.176 145.268,104.284 145.592,104.464 L147.248,100.18 C146.348,99.784 145.268,99.568 144.044,99.568 C140.552,99.568 137.564,102.016 137.564,106.264 L137.564,109.432 L135.044,109.432 L135.044,113.896 L137.564,113.896 L137.564,127 L142.676,127 L142.676,113.896 L146.384,113.896 Z M168.232,127 L168.232,122.428 L167.512,122.428 C166.864,122.428 166.432,122.032 166.432,121.384 L166.432,116.092 C166.432,111.88 163.444,108.964 158.548,108.964 C153.58,108.964 151.564,112.564 151.564,112.564 L155.092,115.192 C155.812,114.04 156.928,113.428 158.296,113.428 C160.24,113.428 161.428,114.58 161.428,116.308 L161.428,116.884 C160.096,116.632 158.656,116.452 157.18,116.452 C152.284,116.452 149.908,119.296 149.908,122.212 C149.908,124.84 151.888,127.36 155.776,127.36 C158.908,127.36 161.032,125.704 162.04,124.012 C162.832,125.848 164.308,127 166.468,127 L168.232,127 Z M157.072,123.4 C155.74,123.4 155.02,122.752 155.02,121.78 C155.02,120.34 156.604,119.656 158.656,119.656 C159.34,119.656 160.492,119.836 161.428,120.016 C160.78,121.924 159.196,123.4 157.072,123.4 L157.072,123.4 Z M186.696,112.132 C185.004,110.224 182.808,109.036 180.036,109.036 C174.78,109.036 171.036,113.068 171.036,118.18 C171.036,123.292 174.78,127.324 180.072,127.324 C183.168,127.324 185.328,126.028 187.128,123.58 L183.348,120.7 C182.592,121.78 181.512,122.572 180.072,122.572 C177.732,122.572 176.076,120.88 176.076,118.18 C176.076,115.588 177.732,113.716 180.072,113.716 C181.512,113.716 182.304,114.4 183.204,115.372 L186.696,112.132 Z M207.14,119.296 L207.14,118.684 C207.14,113.284 204.8,109.036 198.86,109.036 C193.46,109.036 190.076,113.176 190.076,118.18 C190.076,123.58 193.856,127.36 199.004,127.36 C203,127.36 204.908,126.064 206.78,123.544 L203.432,121.132 C202.568,122.392 201.236,123.292 199.292,123.292 C197.312,123.292 195.512,122.212 195.152,119.296 L207.14,119.296 Z M198.824,113.14 C200.372,113.14 201.92,114.184 202.244,116.2 L195.296,116.2 C195.8,114.148 197.204,113.14 198.824,113.14 L198.824,113.14 Z" id="-face-to-face" fill="#3E3E3E" sketch:type="MSShapeGroup"></path>
        </g>
    </g>
</svg>