<?xml version="1.0" encoding="UTF-8" standalone="no"?>
<svg width="1024px" height="556px" viewBox="0 0 1024 556" version="1.1" xmlns="http://www.w3.org/2000/svg" xmlns:xlink="http://www.w3.org/1999/xlink" xmlns:sketch="http://www.bohemiancoding.com/sketch/ns">
    <!-- Generator: Sketch 3.3 (11970) - http://www.bohemiancoding.com/sketch -->
    <title>Rectangle 38 Copy 2</title>
    <desc>Created with Sketch.</desc>
    <defs></defs>
    <g id="Page-1" stroke="none" stroke-width="1" fill="none" fill-rule="evenodd" sketch:type="MSPage">
        <rect id="Rectangle-38-Copy-2" opacity="0.263817631" fill="#CED1D3" sketch:type="MSShapeGroup" x="0" y="0" width="1024" height="556"></rect>
        <g id="financiële-coaching-copy" sketch:type="MSLayerGroup" transform="translate(412.000000, 78.000000)">
            <circle id="Oval-7-Copy-2" fill="#F48267" sketch:type="MSShapeGroup" cx="100" cy="100" r="100"></circle>
            <path d="M157.287415,181.974846 C170.69144,172.590144 181.68763,160.001567 189.164569,145.320532 L195.736377,128.979819 C198.509299,119.807039 200,110.077605 200,100 C200,96.9276729 199.861449,93.8877062 199.590253,90.8860073 L117,46 L67,145 L157.287415,181.974846 Z" id="Oval-6" fill="#BE634E" sketch:type="MSShapeGroup"></path>
            <circle id="Oval-17" fill="#4A4A4A" sketch:type="MSShapeGroup" cx="99" cy="99" r="55"></circle>
            <path d="M125,66.9999998 C116,61.9999998 105,60.8217484 96,61.9108742 C87,62.9999999 68,67.287341 68,99.7301013 C68,130.920924 88,136.835217 96,137.917608 C104,138.999999 112,137.917605 125,133.000003" id="Line" stroke="#F48267" stroke-width="5" stroke-linecap="square" sketch:type="MSShapeGroup"></path>
            <path d="M53.5,94 L104.5,94" id="Line" stroke="#F48267" stroke-width="2" stroke-linecap="square" sketch:type="MSShapeGroup"></path>
            <path d="M53.5,105 L104.5,105" id="Line-Copy" stroke="#F48267" stroke-width="2" stroke-linecap="square" sketch:type="MSShapeGroup"></path>
        </g>
        <path d="M339.08,359 L339.08,346.96 L345.24,346.96 L345.24,341.68 L339.08,341.68 L339.08,336.28 L348.12,336.28 L348.12,331 L333.4,331 L333.4,359 L339.08,359 Z M351.32,333.44 C351.32,335.44 353,337.12 355,337.12 C357,337.12 358.68,335.44 358.68,333.44 C358.68,331.44 357,329.76 355,329.76 C353,329.76 351.32,331.44 351.32,333.44 L351.32,333.44 Z M357.8,359 L357.8,339.48 L352.08,339.48 L352.08,359 L357.8,359 Z M368.84,347.56 C368.92,344.96 370.8,343.6 372.48,343.6 C374.36,343.6 376.08,345 376.08,347.72 L376.08,359 L381.72,359 L381.72,347.4 C381.72,342.16 378.68,339 374.64,339 C371.96,339 370,340.32 368.72,342.16 C368.8,341.6 368.84,341.12 368.84,340.8 L368.84,339.48 L363.24,339.48 L363.24,359 L368.84,359 L368.84,347.56 Z M406.64,359 L406.64,353.92 L405.84,353.92 C405.12,353.92 404.64,353.48 404.64,352.76 L404.64,346.88 C404.64,342.2 401.32,338.96 395.88,338.96 C390.36,338.96 388.12,342.96 388.12,342.96 L392.04,345.88 C392.84,344.6 394.08,343.92 395.6,343.92 C397.76,343.92 399.08,345.2 399.08,347.12 L399.08,347.76 C397.6,347.48 396,347.28 394.36,347.28 C388.92,347.28 386.28,350.44 386.28,353.68 C386.28,356.6 388.48,359.4 392.8,359.4 C396.28,359.4 398.64,357.56 399.76,355.68 C400.64,357.72 402.28,359 404.68,359 L406.64,359 Z M394.24,355 C392.76,355 391.96,354.28 391.96,353.2 C391.96,351.6 393.72,350.84 396,350.84 C396.76,350.84 398.04,351.04 399.08,351.24 C398.36,353.36 396.6,355 394.24,355 L394.24,355 Z M415.6,347.56 C415.68,344.96 417.56,343.6 419.24,343.6 C421.12,343.6 422.84,345 422.84,347.72 L422.84,359 L428.48,359 L428.48,347.4 C428.48,342.16 425.44,339 421.4,339 C418.72,339 416.76,340.32 415.48,342.16 C415.56,341.6 415.6,341.12 415.6,340.8 L415.6,339.48 L410,339.48 L410,359 L415.6,359 L415.6,347.56 Z M450.2,342.48 C448.32,340.36 445.88,339.04 442.8,339.04 C436.96,339.04 432.8,343.52 432.8,349.2 C432.8,354.88 436.96,359.36 442.84,359.36 C446.28,359.36 448.68,357.92 450.68,355.2 L446.48,352 C445.64,353.2 444.44,354.08 442.84,354.08 C440.24,354.08 438.4,352.2 438.4,349.2 C438.4,346.32 440.24,344.24 442.84,344.24 C444.44,344.24 445.32,345 446.32,346.08 L450.2,342.48 Z M454.04,333.44 C454.04,335.44 455.72,337.12 457.72,337.12 C459.72,337.12 461.4,335.44 461.4,333.44 C461.4,331.44 459.72,329.76 457.72,329.76 C455.72,329.76 454.04,331.44 454.04,333.44 L454.04,333.44 Z M460.52,359 L460.52,339.48 L454.8,339.48 L454.8,359 L460.52,359 Z M474.68,359.4 C479.12,359.4 481.24,357.96 483.32,355.16 L479.6,352.48 C478.64,353.88 477.16,354.88 475,354.88 C472.8,354.88 470.8,353.68 470.4,350.44 L483.72,350.44 L483.72,349.76 C483.72,343.76 481.12,339.04 474.52,339.04 C468.52,339.04 464.76,343.64 464.76,349.2 C464.76,355.2 468.96,359.4 474.68,359.4 L474.68,359.4 Z M467.8,334.12 C467.8,335.64 469,336.8 470.52,336.8 C472,336.8 473.24,335.64 473.24,334.12 C473.24,332.6 472,331.4 470.52,331.4 C469,331.4 467.8,332.6 467.8,334.12 L467.8,334.12 Z M475.28,334.12 C475.28,335.64 476.48,336.8 478,336.8 C479.48,336.8 480.72,335.64 480.72,334.12 C480.72,332.6 479.48,331.4 478,331.4 C476.48,331.4 475.28,332.6 475.28,334.12 L475.28,334.12 Z M474.48,343.6 C476.2,343.6 477.92,344.76 478.28,347 L470.56,347 C471.12,344.72 472.68,343.6 474.48,343.6 L474.48,343.6 Z M493.32,359 L493.32,329 L487.64,329 L487.64,359 L493.32,359 Z M516.2,350.44 L516.2,349.76 C516.2,343.76 513.6,339.04 507,339.04 C501,339.04 497.24,343.64 497.24,349.2 C497.24,355.2 501.44,359.4 507.16,359.4 C511.6,359.4 513.72,357.96 515.8,355.16 L512.08,352.48 C511.12,353.88 509.64,354.88 507.48,354.88 C505.28,354.88 503.28,353.68 502.88,350.44 L516.2,350.44 Z M506.96,343.6 C508.68,343.6 510.4,344.76 510.76,347 L503.04,347 C503.6,344.72 505.16,343.6 506.96,343.6 L506.96,343.6 Z M556.4,354.12 L552,350.6 C550.2,352.56 548,353.92 545.36,353.92 C540.6,353.92 536.92,350.08 536.92,345 C536.92,340 540.6,336.12 545.36,336.12 C547.96,336.12 550.12,337.44 551.88,339.28 L556.12,335.6 C553.4,332.44 549.88,330.64 545.4,330.64 C537.48,330.64 531.16,337.12 531.16,345 C531.16,352.96 537.4,359.4 545.4,359.4 C550.2,359.4 553.72,357.32 556.4,354.12 L556.4,354.12 Z M568.76,359.36 C574.48,359.36 578.96,355 578.96,349.2 C578.96,343.4 574.48,339.04 568.76,339.04 C563.04,339.04 558.56,343.4 558.56,349.2 C558.56,355 563.04,359.36 568.76,359.36 L568.76,359.36 Z M568.76,354.4 C565.96,354.4 564,352.2 564,349.2 C564,346.24 565.88,344.04 568.76,344.04 C571.6,344.04 573.48,346.24 573.48,349.2 C573.48,352.2 571.6,354.4 568.76,354.4 L568.76,354.4 Z M602.68,359 L602.68,353.92 L601.88,353.92 C601.16,353.92 600.68,353.48 600.68,352.76 L600.68,346.88 C600.68,342.2 597.36,338.96 591.92,338.96 C586.4,338.96 584.16,342.96 584.16,342.96 L588.08,345.88 C588.88,344.6 590.12,343.92 591.64,343.92 C593.8,343.92 595.12,345.2 595.12,347.12 L595.12,347.76 C593.64,347.48 592.04,347.28 590.4,347.28 C584.96,347.28 582.32,350.44 582.32,353.68 C582.32,356.6 584.52,359.4 588.84,359.4 C592.32,359.4 594.68,357.56 595.8,355.68 C596.68,357.72 598.32,359 600.72,359 L602.68,359 Z M590.28,355 C588.8,355 588,354.28 588,353.2 C588,351.6 589.76,350.84 592.04,350.84 C592.8,350.84 594.08,351.04 595.12,351.24 C594.4,353.36 592.64,355 590.28,355 L590.28,355 Z M622.64,342.48 C620.76,340.36 618.32,339.04 615.24,339.04 C609.4,339.04 605.24,343.52 605.24,349.2 C605.24,354.88 609.4,359.36 615.28,359.36 C618.72,359.36 621.12,357.92 623.12,355.2 L618.92,352 C618.08,353.2 616.88,354.08 615.28,354.08 C612.68,354.08 610.84,352.2 610.84,349.2 C610.84,346.32 612.68,344.24 615.28,344.24 C616.88,344.24 617.76,345 618.76,346.08 L622.64,342.48 Z M632.64,359 L632.64,347.76 C632.88,344.96 634.56,343.6 636.28,343.6 C638.16,343.6 639.88,345 639.88,347.72 L639.88,359 L645.52,359 L645.52,347.4 C645.52,342.16 642.48,339 638.44,339 C635.76,339 633.8,340.32 632.52,342.16 C632.6,341.64 632.64,341.12 632.64,340.8 L632.64,329 L627.04,329 L627.04,359 L632.64,359 Z M650.08,333.44 C650.08,335.44 651.76,337.12 653.76,337.12 C655.76,337.12 657.44,335.44 657.44,333.44 C657.44,331.44 655.76,329.76 653.76,329.76 C651.76,329.76 650.08,331.44 650.08,333.44 L650.08,333.44 Z M656.56,359 L656.56,339.48 L650.84,339.48 L650.84,359 L656.56,359 Z M667.6,347.56 C667.68,344.96 669.56,343.6 671.24,343.6 C673.12,343.6 674.84,345 674.84,347.72 L674.84,359 L680.48,359 L680.48,347.4 C680.48,342.16 677.44,339 673.4,339 C670.72,339 668.76,340.32 667.48,342.16 C667.56,341.6 667.6,341.12 667.6,340.8 L667.6,339.48 L662,339.48 L662,359 L667.6,359 L667.6,347.56 Z M694.08,339.08 C689.16,339.08 685.12,342.36 685.12,347.24 C685.12,349.52 685.84,351.44 687.16,352.84 C684.48,354.92 683.88,358.36 685.32,360.6 C681.88,365.12 683.96,371.68 694.08,371.68 C707.56,371.68 707.64,357.44 697.44,357.44 C694.76,357.44 693.56,358.2 691.72,358.2 C689.08,358.2 689.24,356.44 690.96,355 C691.92,355.24 692.92,355.36 694.08,355.36 C699,355.36 703,352.12 703,347.24 C703,345.4 702.36,343.72 701.24,342.36 L703.56,340.04 L700.28,336.96 L697.8,339.8 C696.68,339.32 695.4,339.08 694.08,339.08 L694.08,339.08 Z M690.4,347.24 C690.4,344.96 691.84,343.6 694.08,343.6 C696.28,343.6 697.72,344.92 697.72,347.24 C697.72,349.52 696.28,350.76 694.08,350.76 C691.96,350.76 690.4,349.56 690.4,347.24 L690.4,347.24 Z M690.08,362.96 C692.92,362.96 695.08,362.04 697.24,362.04 C700.92,362.04 701.12,366.92 694.08,366.92 C689.28,366.92 687.96,364.92 689.04,362.88 C689.36,362.92 689.72,362.96 690.08,362.96 L690.08,362.96 Z" id="Financiële-Coaching" fill="#4A4A4A" sketch:type="MSShapeGroup"></path>
    </g>
</svg>