<?xml version="1.0" encoding="UTF-8" standalone="no"?>
<svg width="200px" height="200px" viewBox="0 0 200 200" version="1.1" xmlns="http://www.w3.org/2000/svg" xmlns:xlink="http://www.w3.org/1999/xlink" xmlns:sketch="http://www.bohemiancoding.com/sketch/ns">
    <!-- Generator: Sketch 3.3 (11970) - http://www.bohemiancoding.com/sketch -->
    <title>Oval 40 Copy 8 + Intake Copy</title>
    <desc>Created with Sketch.</desc>
    <defs></defs>
    <g id="Page-1" stroke="none" stroke-width="1" fill="none" fill-rule="evenodd" sketch:type="MSPage">
        <g id="Oval-40-Copy-8-+-Intake-Copy" sketch:type="MSLayerGroup">
            <circle id="Oval-40-Copy-8" fill="#1EA285" sketch:type="MSShapeGroup" cx="100" cy="100" r="100"></circle>
            <g id="Intake-Copy" transform="translate(50.000000, 48.000000)" sketch:type="MSShapeGroup">
                <path d="M69.795943,150.040837 C114.589311,141.045828 148.559344,102.121169 149.955341,55.0175596 L81,0 L50,34 L0,92 L69.795943,150.040837 Z" id="Oval-40-Copy-6" fill="#0E7864"></path>
                <g id="Group">
                    <path d="M100,92 L0,92 L19.2148438,0 L80.7851562,0 L100,92 Z" id="Rectangle-76" fill="#F1F0EE"></path>
                    <path d="M86.1013972,82.0292969 L13.8986028,82.0292969 L25.3427734,6 L74.6572266,6 L86.1013972,82.0292969 Z" id="Rectangle-76" fill="#F1F0EE"></path>
                    <path d="M60,14 L64,14 L64,50 L60,50 L60,14 Z M60,53 L60,50 L64,50 L64,53 L62,57 L60,53 Z" id="Rectangle-76" fill="#4A4A4A" transform="translate(62.000000, 35.500000) rotate(30.000000) translate(-62.000000, -35.500000) "></path>
                    <path d="M31.5,18.5 L53.5,18.5" id="Line" stroke="#4A4A4A" stroke-linecap="square"></path>
                    <path d="M30.5,24 L63.5,24" id="Line-Copy-6" stroke="#4A4A4A" stroke-linecap="square"></path>
                    <path d="M29.5,30.5 L69.5,30.5" id="Line-Copy-7" stroke="#4A4A4A" stroke-linecap="square"></path>
                    <path d="M28.5,37.5 L69.5,37.5" id="Line-Copy-8" stroke="#4A4A4A" stroke-linecap="square"></path>
                    <path d="M28.5,46.5 L49.5,46.5" id="Line-Copy-9" stroke="#4A4A4A" stroke-linecap="square"></path>
                    <path d="M27.5,55.5 L68.5,55.5" id="Line-Copy-10" stroke="#4A4A4A" stroke-linecap="square"></path>
                    <path d="M27.5,63.5 L68.5,63.5" id="Line-Copy-11" stroke="#4A4A4A" stroke-linecap="square"></path>
                    <path d="M26.5,72.5 L44.5,72.5" id="Line-Copy-13" stroke="#4A4A4A" stroke-linecap="square"></path>
                </g>
            </g>
        </g>
    </g>
</svg>