<?xml version="1.0" encoding="UTF-8" standalone="no"?>
<svg width="1024px" height="556px" viewBox="0 0 1024 556" version="1.1" xmlns="http://www.w3.org/2000/svg" xmlns:xlink="http://www.w3.org/1999/xlink" xmlns:sketch="http://www.bohemiancoding.com/sketch/ns">
    <!-- Generator: Sketch 3.3 (11970) - http://www.bohemiancoding.com/sketch -->
    <title>Rectangle 38 Copy 3</title>
    <desc>Created with Sketch.</desc>
    <defs></defs>
    <g id="Page-1" stroke="none" stroke-width="1" fill="none" fill-rule="evenodd" sketch:type="MSPage">
        <rect id="Rectangle-38-Copy-3" opacity="0.263817631" fill="#CED1D3" sketch:type="MSShapeGroup" x="0" y="0" width="1024" height="556"></rect>
        <g id="loopbaan-coaching-copy" sketch:type="MSLayerGroup" transform="translate(412.000000, 78.000000)">
            <circle id="Oval-7-Copy" fill="#F48267" sketch:type="MSShapeGroup" cx="100" cy="100" r="100"></circle>
            <path d="M142.731859,190.436107 C176.584346,174.412304 200,139.940661 200,100 C200,96.5675752 199.827067,93.175541 199.489438,89.832135 L167,75 L137,100 L96,82 L30,128 L142.731859,190.436107 Z" id="Oval-3" fill="#BE634E" sketch:type="MSShapeGroup"></path>
            <path d="M113.627245,114.738628 C113.284207,115.197789 112.85601,115.604927 112.348142,115.934741 C110.032217,117.43872 106.937409,116.783335 105.427829,114.458786 L91.9984749,93.7793942 L37.3733805,129.253345 C35.0554369,130.758635 31.9540962,130.096774 30.4531773,127.785561 C28.9491981,125.469637 29.6121439,122.369918 31.9269901,120.86664 L90.6266195,82.7466546 C92.9445631,81.2413645 96.0459038,81.9032262 97.5468227,84.2144386 C97.6249962,84.3348152 97.6973153,84.4573093 97.7638524,84.5815868 L97.7638524,84.5815868 C98.0655671,84.8600592 98.33795,85.1805453 98.572171,85.541214 L111.150336,104.909889 L139.877581,86.2541982 C139.885989,86.248738 139.894408,86.2433063 139.902836,86.2379031 L138.572881,84.1899523 C136.77046,81.4144669 137.942159,78.6645828 141.211849,78.0437549 L164.435524,73.6341925 C167.695407,73.0152268 168.810499,74.7153528 166.913441,77.4498504 L153.439186,96.8722022 C151.547819,99.5984976 148.550805,99.554608 146.75099,96.7831358 L145.34913,94.6244605 C145.340766,94.6299626 145.33238,94.6354437 145.323972,94.6409039 L115.511436,114.001391 C114.921034,114.384802 114.27985,114.6277 113.627245,114.738628 Z" id="Rectangle-13" fill="#4A4A4A" sketch:type="MSShapeGroup"></path>
        </g>
        <path d="M345.96,359 L345.96,353.8 L336.08,353.8 L336.08,331 L330.4,331 L330.4,359 L345.96,359 Z M357.12,359.36 C362.84,359.36 367.32,355 367.32,349.2 C367.32,343.4 362.84,339.04 357.12,339.04 C351.4,339.04 346.92,343.4 346.92,349.2 C346.92,355 351.4,359.36 357.12,359.36 L357.12,359.36 Z M357.12,354.4 C354.32,354.4 352.36,352.2 352.36,349.2 C352.36,346.24 354.24,344.04 357.12,344.04 C359.96,344.04 361.84,346.24 361.84,349.2 C361.84,352.2 359.96,354.4 357.12,354.4 L357.12,354.4 Z M380.24,359.36 C385.96,359.36 390.44,355 390.44,349.2 C390.44,343.4 385.96,339.04 380.24,339.04 C374.52,339.04 370.04,343.4 370.04,349.2 C370.04,355 374.52,359.36 380.24,359.36 L380.24,359.36 Z M380.24,354.4 C377.44,354.4 375.48,352.2 375.48,349.2 C375.48,346.24 377.36,344.04 380.24,344.04 C383.08,344.04 384.96,346.24 384.96,349.2 C384.96,352.2 383.08,354.4 380.24,354.4 L380.24,354.4 Z M399.76,369 L399.76,356.44 C401.28,358.28 403.4,359.4 405.68,359.4 C411.16,359.4 414.12,354.44 414.12,349.16 C414.12,343.96 411.04,339.04 405.64,339.04 C403.48,339.04 401.48,339.84 399.96,341.44 L399.96,339.48 L394.36,339.48 L394.36,369 L399.76,369 Z M404.2,354.44 C401.64,354.44 399.88,351.88 399.88,349.2 C399.88,346.2 401.6,344.04 404.2,344.04 C407.12,344.04 408.56,346.36 408.56,349.24 C408.56,352.08 407.08,354.44 404.2,354.44 L404.2,354.44 Z M423.44,359 L423.44,356.44 C424.96,358.28 427.08,359.4 429.36,359.4 C434.84,359.4 437.8,354.44 437.8,349.16 C437.8,343.96 434.72,339.04 429.32,339.04 C427.16,339.04 425.16,339.84 423.64,341.44 L423.64,329 L418.04,329 L418.04,359 L423.44,359 Z M427.88,354.44 C425.32,354.44 423.56,351.88 423.56,349.2 C423.56,346.2 425.28,344.04 427.88,344.04 C430.8,344.04 432.24,346.36 432.24,349.24 C432.24,352.08 430.76,354.44 427.88,354.44 L427.88,354.44 Z M461.52,359 L461.52,353.92 L460.72,353.92 C460,353.92 459.52,353.48 459.52,352.76 L459.52,346.88 C459.52,342.2 456.2,338.96 450.76,338.96 C445.24,338.96 443,342.96 443,342.96 L446.92,345.88 C447.72,344.6 448.96,343.92 450.48,343.92 C452.64,343.92 453.96,345.2 453.96,347.12 L453.96,347.76 C452.48,347.48 450.88,347.28 449.24,347.28 C443.8,347.28 441.16,350.44 441.16,353.68 C441.16,356.6 443.36,359.4 447.68,359.4 C451.16,359.4 453.52,357.56 454.64,355.68 C455.52,357.72 457.16,359 459.56,359 L461.52,359 Z M449.12,355 C447.64,355 446.84,354.28 446.84,353.2 C446.84,351.6 448.6,350.84 450.88,350.84 C451.64,350.84 452.92,351.04 453.96,351.24 C453.24,353.36 451.48,355 449.12,355 L449.12,355 Z M484.68,359 L484.68,353.92 L483.88,353.92 C483.16,353.92 482.68,353.48 482.68,352.76 L482.68,346.88 C482.68,342.2 479.36,338.96 473.92,338.96 C468.4,338.96 466.16,342.96 466.16,342.96 L470.08,345.88 C470.88,344.6 472.12,343.92 473.64,343.92 C475.8,343.92 477.12,345.2 477.12,347.12 L477.12,347.76 C475.64,347.48 474.04,347.28 472.4,347.28 C466.96,347.28 464.32,350.44 464.32,353.68 C464.32,356.6 466.52,359.4 470.84,359.4 C474.32,359.4 476.68,357.56 477.8,355.68 C478.68,357.72 480.32,359 482.72,359 L484.68,359 Z M472.28,355 C470.8,355 470,354.28 470,353.2 C470,351.6 471.76,350.84 474.04,350.84 C474.8,350.84 476.08,351.04 477.12,351.24 C476.4,353.36 474.64,355 472.28,355 L472.28,355 Z M493.64,347.56 C493.72,344.96 495.6,343.6 497.28,343.6 C499.16,343.6 500.88,345 500.88,347.72 L500.88,359 L506.52,359 L506.52,347.4 C506.52,342.16 503.48,339 499.44,339 C496.76,339 494.8,340.32 493.52,342.16 C493.6,341.6 493.64,341.12 493.64,340.8 L493.64,339.48 L488.04,339.48 L488.04,359 L493.64,359 L493.64,347.56 Z M547.92,354.12 L543.52,350.6 C541.72,352.56 539.52,353.92 536.88,353.92 C532.12,353.92 528.44,350.08 528.44,345 C528.44,340 532.12,336.12 536.88,336.12 C539.48,336.12 541.64,337.44 543.4,339.28 L547.64,335.6 C544.92,332.44 541.4,330.64 536.92,330.64 C529,330.64 522.68,337.12 522.68,345 C522.68,352.96 528.92,359.4 536.92,359.4 C541.72,359.4 545.24,357.32 547.92,354.12 L547.92,354.12 Z M560.28,359.36 C566,359.36 570.48,355 570.48,349.2 C570.48,343.4 566,339.04 560.28,339.04 C554.56,339.04 550.08,343.4 550.08,349.2 C550.08,355 554.56,359.36 560.28,359.36 L560.28,359.36 Z M560.28,354.4 C557.48,354.4 555.52,352.2 555.52,349.2 C555.52,346.24 557.4,344.04 560.28,344.04 C563.12,344.04 565,346.24 565,349.2 C565,352.2 563.12,354.4 560.28,354.4 L560.28,354.4 Z M594.2,359 L594.2,353.92 L593.4,353.92 C592.68,353.92 592.2,353.48 592.2,352.76 L592.2,346.88 C592.2,342.2 588.88,338.96 583.44,338.96 C577.92,338.96 575.68,342.96 575.68,342.96 L579.6,345.88 C580.4,344.6 581.64,343.92 583.16,343.92 C585.32,343.92 586.64,345.2 586.64,347.12 L586.64,347.76 C585.16,347.48 583.56,347.28 581.92,347.28 C576.48,347.28 573.84,350.44 573.84,353.68 C573.84,356.6 576.04,359.4 580.36,359.4 C583.84,359.4 586.2,357.56 587.32,355.68 C588.2,357.72 589.84,359 592.24,359 L594.2,359 Z M581.8,355 C580.32,355 579.52,354.28 579.52,353.2 C579.52,351.6 581.28,350.84 583.56,350.84 C584.32,350.84 585.6,351.04 586.64,351.24 C585.92,353.36 584.16,355 581.8,355 L581.8,355 Z M614.16,342.48 C612.28,340.36 609.84,339.04 606.76,339.04 C600.92,339.04 596.76,343.52 596.76,349.2 C596.76,354.88 600.92,359.36 606.8,359.36 C610.24,359.36 612.64,357.92 614.64,355.2 L610.44,352 C609.6,353.2 608.4,354.08 606.8,354.08 C604.2,354.08 602.36,352.2 602.36,349.2 C602.36,346.32 604.2,344.24 606.8,344.24 C608.4,344.24 609.28,345 610.28,346.08 L614.16,342.48 Z M624.16,359 L624.16,347.76 C624.4,344.96 626.08,343.6 627.8,343.6 C629.68,343.6 631.4,345 631.4,347.72 L631.4,359 L637.04,359 L637.04,347.4 C637.04,342.16 634,339 629.96,339 C627.28,339 625.32,340.32 624.04,342.16 C624.12,341.64 624.16,341.12 624.16,340.8 L624.16,329 L618.56,329 L618.56,359 L624.16,359 Z M641.6,333.44 C641.6,335.44 643.28,337.12 645.28,337.12 C647.28,337.12 648.96,335.44 648.96,333.44 C648.96,331.44 647.28,329.76 645.28,329.76 C643.28,329.76 641.6,331.44 641.6,333.44 L641.6,333.44 Z M648.08,359 L648.08,339.48 L642.36,339.48 L642.36,359 L648.08,359 Z M659.12,347.56 C659.2,344.96 661.08,343.6 662.76,343.6 C664.64,343.6 666.36,345 666.36,347.72 L666.36,359 L672,359 L672,347.4 C672,342.16 668.96,339 664.92,339 C662.24,339 660.28,340.32 659,342.16 C659.08,341.6 659.12,341.12 659.12,340.8 L659.12,339.48 L653.52,339.48 L653.52,359 L659.12,359 L659.12,347.56 Z M685.6,339.08 C680.68,339.08 676.64,342.36 676.64,347.24 C676.64,349.52 677.36,351.44 678.68,352.84 C676,354.92 675.4,358.36 676.84,360.6 C673.4,365.12 675.48,371.68 685.6,371.68 C699.08,371.68 699.16,357.44 688.96,357.44 C686.28,357.44 685.08,358.2 683.24,358.2 C680.6,358.2 680.76,356.44 682.48,355 C683.44,355.24 684.44,355.36 685.6,355.36 C690.52,355.36 694.52,352.12 694.52,347.24 C694.52,345.4 693.88,343.72 692.76,342.36 L695.08,340.04 L691.8,336.96 L689.32,339.8 C688.2,339.32 686.92,339.08 685.6,339.08 L685.6,339.08 Z M681.92,347.24 C681.92,344.96 683.36,343.6 685.6,343.6 C687.8,343.6 689.24,344.92 689.24,347.24 C689.24,349.52 687.8,350.76 685.6,350.76 C683.48,350.76 681.92,349.56 681.92,347.24 L681.92,347.24 Z M681.6,362.96 C684.44,362.96 686.6,362.04 688.76,362.04 C692.44,362.04 692.64,366.92 685.6,366.92 C680.8,366.92 679.48,364.92 680.56,362.88 C680.88,362.92 681.24,362.96 681.6,362.96 L681.6,362.96 Z" id="Loopbaan-Coaching" fill="#4A4A4A" sketch:type="MSShapeGroup"></path>
    </g>
</svg>