<?xml version="1.0" encoding="UTF-8" standalone="no"?>
<svg width="1024px" height="556px" viewBox="0 0 1024 556" version="1.1" xmlns="http://www.w3.org/2000/svg" xmlns:xlink="http://www.w3.org/1999/xlink" xmlns:sketch="http://www.bohemiancoding.com/sketch/ns">
    <!-- Generator: Sketch 3.3 (11970) - http://www.bohemiancoding.com/sketch -->
    <title>Rectangle 38 Copy 6</title>
    <desc>Created with Sketch.</desc>
    <defs></defs>
    <g id="Page-1" stroke="none" stroke-width="1" fill="none" fill-rule="evenodd" sketch:type="MSPage">
        <rect id="Rectangle-38-Copy-6" opacity="0.263817631" fill="#CED1D3" sketch:type="MSShapeGroup" x="0" y="0" width="1024" height="556"></rect>
        <g id="personal-coaching-copy" sketch:type="MSLayerGroup" transform="translate(412.000000, 78.000000)">
            <circle id="Oval-1-Copy-2" fill="#F48267" sketch:type="MSShapeGroup" cx="100" cy="100" r="100"></circle>
            <path d="M139.197317,192.025638 C174.943564,176.780419 200,141.316332 200,100 C200,92.8249106 199.244333,85.8263167 197.808243,79.0794621 L100,38 L114,115 L40,154 L139.197317,192.025638 Z" id="Oval-1" fill="#BE634E" sketch:type="MSShapeGroup"></path>
            <path d="M114.445221,114.584875 L115.478036,123.880205 C124.363876,124.51745 132.826478,125.836296 139.935791,128 C162.935791,135 159.935791,154 159.935791,154 L39.9357907,154 C39.9357907,154 40.0999571,133.157317 59.9357907,128 C66.5434194,126.282017 75.0739057,124.931845 84.3631432,124.153827 L84.3631432,124.153827 L85.4263602,114.584875 C74.2551695,108.367813 69.9357907,94.3261435 69.9357907,78 C69.9357907,55.90861 79.9357907,38 99.9357907,38 C119.935791,38 129.935791,55.90861 129.935791,78 C129.935791,94.3261435 125.616412,108.367813 114.445221,114.584875 Z" id="Rectangle-1" fill="#4A4A4A" sketch:type="MSShapeGroup"></path>
        </g>
        <path d="M347.88,359 L347.88,349.36 L352.4,349.36 C357.92,349.36 361.44,345.84 361.44,340.2 C361.44,334.56 357.92,331 352.4,331 L342.2,331 L342.2,359 L347.88,359 Z M351.52,344.16 L347.88,344.16 L347.88,336.2 L351.52,336.2 C354.32,336.2 355.96,337.64 355.96,340.2 C355.96,342.76 354.28,344.16 351.52,344.16 L351.52,344.16 Z M381.76,350.44 L381.76,349.76 C381.76,343.76 379.16,339.04 372.56,339.04 C366.56,339.04 362.8,343.64 362.8,349.2 C362.8,355.2 367,359.4 372.72,359.4 C377.16,359.4 379.28,357.96 381.36,355.16 L377.64,352.48 C376.68,353.88 375.2,354.88 373.04,354.88 C370.84,354.88 368.84,353.68 368.44,350.44 L381.76,350.44 Z M372.52,343.6 C374.24,343.6 375.96,344.76 376.32,347 L368.6,347 C369.16,344.72 370.72,343.6 372.52,343.6 L372.52,343.6 Z M391.28,349.36 C391.28,346.16 393.6,344.48 396.52,344.48 L396.52,339 C393.96,339 392.2,340.6 391.08,342.72 C391.2,341.96 391.28,341.24 391.28,340.8 L391.28,339.48 L385.68,339.48 L385.68,359 L391.28,359 L391.28,349.36 Z M399.32,356.12 C401.44,358.4 404.32,359.4 407.84,359.4 C412.24,359.4 415.4,356.84 415.4,353.16 C415.4,349.44 411.6,347.6 408.64,346.72 C406.88,346.2 405.76,345.72 405.76,344.76 C405.76,344 406.52,343.52 407.56,343.52 C408.72,343.52 410.28,344.36 411.12,345.28 L414.24,341.92 C412.48,340.08 410.4,339.08 407.44,339.08 C404.16,339.08 400.52,341.2 400.52,344.96 C400.52,348.92 404.28,350.6 407.32,351.48 C408.96,351.96 409.96,352.44 409.96,353.44 C409.96,354.16 409.08,354.64 407.88,354.64 C406,354.64 403.84,354 402.48,352.44 L399.32,356.12 Z M428.32,359.36 C434.04,359.36 438.52,355 438.52,349.2 C438.52,343.4 434.04,339.04 428.32,339.04 C422.6,339.04 418.12,343.4 418.12,349.2 C418.12,355 422.6,359.36 428.32,359.36 L428.32,359.36 Z M428.32,354.4 C425.52,354.4 423.56,352.2 423.56,349.2 C423.56,346.24 425.44,344.04 428.32,344.04 C431.16,344.04 433.04,346.24 433.04,349.2 C433.04,352.2 431.16,354.4 428.32,354.4 L428.32,354.4 Z M448.04,347.56 C448.12,344.96 450,343.6 451.68,343.6 C453.56,343.6 455.28,345 455.28,347.72 L455.28,359 L460.92,359 L460.92,347.4 C460.92,342.16 457.88,339 453.84,339 C451.16,339 449.2,340.32 447.92,342.16 C448,341.6 448.04,341.12 448.04,340.8 L448.04,339.48 L442.44,339.48 L442.44,359 L448.04,359 L448.04,347.56 Z M485.84,359 L485.84,353.92 L485.04,353.92 C484.32,353.92 483.84,353.48 483.84,352.76 L483.84,346.88 C483.84,342.2 480.52,338.96 475.08,338.96 C469.56,338.96 467.32,342.96 467.32,342.96 L471.24,345.88 C472.04,344.6 473.28,343.92 474.8,343.92 C476.96,343.92 478.28,345.2 478.28,347.12 L478.28,347.76 C476.8,347.48 475.2,347.28 473.56,347.28 C468.12,347.28 465.48,350.44 465.48,353.68 C465.48,356.6 467.68,359.4 472,359.4 C475.48,359.4 477.84,357.56 478.96,355.68 C479.84,357.72 481.48,359 483.88,359 L485.84,359 Z M473.44,355 C471.96,355 471.16,354.28 471.16,353.2 C471.16,351.6 472.92,350.84 475.2,350.84 C475.96,350.84 477.24,351.04 478.28,351.24 C477.56,353.36 475.8,355 473.44,355 L473.44,355 Z M494.88,359 L494.88,329 L489.2,329 L489.2,359 L494.88,359 Z M536.28,354.12 L531.88,350.6 C530.08,352.56 527.88,353.92 525.24,353.92 C520.48,353.92 516.8,350.08 516.8,345 C516.8,340 520.48,336.12 525.24,336.12 C527.84,336.12 530,337.44 531.76,339.28 L536,335.6 C533.28,332.44 529.76,330.64 525.28,330.64 C517.36,330.64 511.04,337.12 511.04,345 C511.04,352.96 517.28,359.4 525.28,359.4 C530.08,359.4 533.6,357.32 536.28,354.12 L536.28,354.12 Z M548.64,359.36 C554.36,359.36 558.84,355 558.84,349.2 C558.84,343.4 554.36,339.04 548.64,339.04 C542.92,339.04 538.44,343.4 538.44,349.2 C538.44,355 542.92,359.36 548.64,359.36 L548.64,359.36 Z M548.64,354.4 C545.84,354.4 543.88,352.2 543.88,349.2 C543.88,346.24 545.76,344.04 548.64,344.04 C551.48,344.04 553.36,346.24 553.36,349.2 C553.36,352.2 551.48,354.4 548.64,354.4 L548.64,354.4 Z M582.56,359 L582.56,353.92 L581.76,353.92 C581.04,353.92 580.56,353.48 580.56,352.76 L580.56,346.88 C580.56,342.2 577.24,338.96 571.8,338.96 C566.28,338.96 564.04,342.96 564.04,342.96 L567.96,345.88 C568.76,344.6 570,343.92 571.52,343.92 C573.68,343.92 575,345.2 575,347.12 L575,347.76 C573.52,347.48 571.92,347.28 570.28,347.28 C564.84,347.28 562.2,350.44 562.2,353.68 C562.2,356.6 564.4,359.4 568.72,359.4 C572.2,359.4 574.56,357.56 575.68,355.68 C576.56,357.72 578.2,359 580.6,359 L582.56,359 Z M570.16,355 C568.68,355 567.88,354.28 567.88,353.2 C567.88,351.6 569.64,350.84 571.92,350.84 C572.68,350.84 573.96,351.04 575,351.24 C574.28,353.36 572.52,355 570.16,355 L570.16,355 Z M602.52,342.48 C600.64,340.36 598.2,339.04 595.12,339.04 C589.28,339.04 585.12,343.52 585.12,349.2 C585.12,354.88 589.28,359.36 595.16,359.36 C598.6,359.36 601,357.92 603,355.2 L598.8,352 C597.96,353.2 596.76,354.08 595.16,354.08 C592.56,354.08 590.72,352.2 590.72,349.2 C590.72,346.32 592.56,344.24 595.16,344.24 C596.76,344.24 597.64,345 598.64,346.08 L602.52,342.48 Z M612.52,359 L612.52,347.76 C612.76,344.96 614.44,343.6 616.16,343.6 C618.04,343.6 619.76,345 619.76,347.72 L619.76,359 L625.4,359 L625.4,347.4 C625.4,342.16 622.36,339 618.32,339 C615.64,339 613.68,340.32 612.4,342.16 C612.48,341.64 612.52,341.12 612.52,340.8 L612.52,329 L606.92,329 L606.92,359 L612.52,359 Z M629.96,333.44 C629.96,335.44 631.64,337.12 633.64,337.12 C635.64,337.12 637.32,335.44 637.32,333.44 C637.32,331.44 635.64,329.76 633.64,329.76 C631.64,329.76 629.96,331.44 629.96,333.44 L629.96,333.44 Z M636.44,359 L636.44,339.48 L630.72,339.48 L630.72,359 L636.44,359 Z M647.48,347.56 C647.56,344.96 649.44,343.6 651.12,343.6 C653,343.6 654.72,345 654.72,347.72 L654.72,359 L660.36,359 L660.36,347.4 C660.36,342.16 657.32,339 653.28,339 C650.6,339 648.64,340.32 647.36,342.16 C647.44,341.6 647.48,341.12 647.48,340.8 L647.48,339.48 L641.88,339.48 L641.88,359 L647.48,359 L647.48,347.56 Z M673.96,339.08 C669.04,339.08 665,342.36 665,347.24 C665,349.52 665.72,351.44 667.04,352.84 C664.36,354.92 663.76,358.36 665.2,360.6 C661.76,365.12 663.84,371.68 673.96,371.68 C687.44,371.68 687.52,357.44 677.32,357.44 C674.64,357.44 673.44,358.2 671.6,358.2 C668.96,358.2 669.12,356.44 670.84,355 C671.8,355.24 672.8,355.36 673.96,355.36 C678.88,355.36 682.88,352.12 682.88,347.24 C682.88,345.4 682.24,343.72 681.12,342.36 L683.44,340.04 L680.16,336.96 L677.68,339.8 C676.56,339.32 675.28,339.08 673.96,339.08 L673.96,339.08 Z M670.28,347.24 C670.28,344.96 671.72,343.6 673.96,343.6 C676.16,343.6 677.6,344.92 677.6,347.24 C677.6,349.52 676.16,350.76 673.96,350.76 C671.84,350.76 670.28,349.56 670.28,347.24 L670.28,347.24 Z M669.96,362.96 C672.8,362.96 674.96,362.04 677.12,362.04 C680.8,362.04 681,366.92 673.96,366.92 C669.16,366.92 667.84,364.92 668.92,362.88 C669.24,362.92 669.6,362.96 669.96,362.96 L669.96,362.96 Z" id="Personal-Coaching" fill="#4A4A4A" sketch:type="MSShapeGroup"></path>
    </g>
</svg>