<?xml version="1.0" encoding="UTF-8" standalone="no"?>
<svg width="92px" height="92px" viewBox="0 0 92 92" version="1.1" xmlns="http://www.w3.org/2000/svg" xmlns:xlink="http://www.w3.org/1999/xlink" xmlns:sketch="http://www.bohemiancoding.com/sketch/ns">
    <!-- Generator: Sketch 3.3 (11970) - http://www.bohemiancoding.com/sketch -->
    <title>REQUEST + Group + Rectangle 22 + Oval 11 Copy</title>
    <desc>Created with Sketch.</desc>
    <defs></defs>
    <g id="Page-1" stroke="none" stroke-width="1" fill="none" fill-rule="evenodd" sketch:type="MSPage">
        <g id="REQUEST-+-Group-+-Rectangle-22-+-Oval-11-Copy" sketch:type="MSLayerGroup" transform="translate(10.000000, 1.000000)">
            <g id="Group-+-Rectangle-22-+-Oval-11-Copy" transform="translate(2.000000, 0.000000)" sketch:type="MSShapeGroup">
                <g id="Group-+-Rectangle-22" transform="translate(14.000000, 12.000000)">
                    <g id="Group">
                        <path d="M40,39 L0,39 L7.6859375,2.01030928 L32.3140625,2.01030928 L40,39 Z" id="Rectangle-76" fill="#4A4A4A"></path>
                        <path d="M34.4405589,34.9911606 L5.55944113,34.9911606 L10.1371094,4.42268041 L29.8628906,4.42268041 L34.4405589,34.9911606 Z" id="Rectangle-76" fill="#F3F3F4"></path>
                        <path d="M12.6,9.44845361 L21.4,9.44845361" id="Line" stroke="#4A4A4A" stroke-linecap="square"></path>
                        <path d="M12.2,11.6597938 L25.4,11.6597938" id="Line-Copy-6" stroke="#4A4A4A" stroke-linecap="square"></path>
                        <path d="M11.8,14.2731959 L27.8,14.2731959" id="Line-Copy-7" stroke="#4A4A4A" stroke-linecap="square"></path>
                        <path d="M11.4,17.0876289 L27.8,17.0876289" id="Line-Copy-8" stroke="#4A4A4A" stroke-linecap="square"></path>
                        <path d="M11.4,20.7061856 L19.8,20.7061856" id="Line-Copy-9" stroke="#4A4A4A" stroke-linecap="square"></path>
                        <path d="M11,24.3247423 L27.4,24.3247423" id="Line-Copy-10" stroke="#4A4A4A" stroke-linecap="square"></path>
                        <path d="M11,27.5412371 L27.4,27.5412371" id="Line-Copy-11" stroke="#4A4A4A" stroke-linecap="square"></path>
                        <path d="M10.6,31.1597938 L17.8,31.1597938" id="Line-Copy-13" stroke="#4A4A4A" stroke-linecap="square"></path>
                        <path d="M19.070879,0.0995152281 C18.2185446,0.0995152281 17.443998,0.675436181 17.3439807,1.88183911 L17.0900313,2.93465145 L13.635236,2.93465145 C13.1921414,2.93465145 12.7501733,3.71229483 12.5623378,4.21129787 L12,6.83505155 L28,6.83505155 L27.4561914,4.21129787 C27.2491878,3.70966029 26.8054427,2.93465145 26.364764,2.93465145 L22.9099687,2.93465145 L22.6560193,1.88183911 C22.555987,0.675255511 21.7828432,0.0995152281 20.929121,0.0995152281 L19.070879,0.0995152281 Z" id="Rectangle-76" stroke="#D8D8D8" fill="#4A4A4A"></path>
                        <path d="M20.4008348,3.63757677 L19.5991652,3.63757677 C19.1577985,3.63757677 18.9046731,3.35469022 19.0266301,3.00837993 L19.2313935,2.37721146 C19.3344762,2.02971564 19.5887673,1.74801462 19.8039287,1.74801462 L20.1960713,1.74801462 C20.4119692,1.74801462 20.6658638,2.03090117 20.7686065,2.37721146 L20.9733699,3.00837993 C21.0957561,3.35587575 20.8406958,3.63757677 20.4008348,3.63757677 Z" id="Rectangle-79" fill="#D8D8D8"></path>
                    </g>
                    <path d="M25,8 L27,8 L27,21 L25,21 L25,8 Z M25,21 L27,21 L26,24 L25,21 Z" id="Rectangle-22" stroke="#4A4A4A" fill="#D8D8D8" transform="translate(26.000000, 16.000000) rotate(24.000000) translate(-26.000000, -16.000000) "></path>
                </g>
                <circle id="Oval-11-Copy" stroke="#4A4A4A" stroke-width="2" cx="34" cy="34" r="34"></circle>
            </g>
            <path d="M2.22,81.349 C2.72400252,81.349 3.16949806,81.2875006 3.5565,81.1645 C3.94350193,81.0414994 4.26749869,80.8675011 4.5285,80.6425 C4.7895013,80.4174989 4.98599934,80.1490016 5.118,79.837 C5.25000066,79.5249984 5.316,79.1800019 5.316,78.802 C5.316,78.0339962 5.06400252,77.4550019 4.56,77.065 C4.05599748,76.674998 3.30000504,76.48 2.292,76.48 L0.384,76.48 L0.384,81.349 L2.22,81.349 Z M8.178,88 L6.63,88 C6.31199841,88 6.07800075,87.8770012 5.928,87.631 L2.58,83.023 C2.47799949,82.8789993 2.36850058,82.7755003 2.2515,82.7125 C2.13449941,82.6494997 1.95300123,82.618 1.707,82.618 L0.384,82.618 L0.384,88 L-1.353,88 L-1.353,75.103 L2.292,75.103 C3.10800408,75.103 3.81299703,75.1854992 4.407,75.3505 C5.00100297,75.5155008 5.49149806,75.7539984 5.8785,76.066 C6.26550193,76.3780016 6.55199907,76.7544978 6.738,77.1955 C6.92400093,77.6365022 7.017,78.1299973 7.017,78.676 C7.017,79.1320023 6.94500072,79.557998 6.801,79.954 C6.65699928,80.350002 6.44850136,80.7054984 6.1755,81.0205 C5.90249863,81.3355016 5.56950196,81.6039989 5.1765,81.826 C4.78349803,82.0480011 4.33800249,82.2159994 3.84,82.33 C4.06200111,82.4560006 4.25399919,82.6389988 4.416,82.879 L8.178,88 Z M17.88,86.578 L17.871,88 L9.924,88 L9.924,75.103 L17.871,75.103 L17.871,76.525 L11.67,76.525 L11.67,80.809 L16.692,80.809 L16.692,82.177 L11.67,82.177 L11.67,86.578 L17.88,86.578 Z M21.03,81.556 C21.03,82.348004 21.1379989,83.0574969 21.354,83.6845 C21.5700011,84.3115031 21.877498,84.8424978 22.2765,85.2775 C22.675502,85.7125022 23.1569972,86.0454988 23.721,86.2765 C24.2850028,86.5075012 24.9119965,86.623 25.602,86.623 C26.2980035,86.623 26.9279972,86.5075012 27.492,86.2765 C28.0560028,86.0454988 28.535998,85.7125022 28.932,85.2775 C29.328002,84.8424978 29.6339989,84.3115031 29.85,83.6845 C30.0660011,83.0574969 30.174,82.348004 30.174,81.556 C30.174,80.763996 30.0660011,80.0530031 29.85,79.423 C29.6339989,78.7929968 29.328002,78.2605022 28.932,77.8255 C28.535998,77.3904978 28.0560028,77.0560012 27.492,76.822 C26.9279972,76.5879988 26.2980035,76.471 25.602,76.471 C24.9119965,76.471 24.2850028,76.5879988 23.721,76.822 C23.1569972,77.0560012 22.675502,77.3904978 22.2765,77.8255 C21.877498,78.2605022 21.5700011,78.7929968 21.354,79.423 C21.1379989,80.0530031 21.03,80.763996 21.03,81.556 L21.03,81.556 Z M32.559,90.664 L31.119,90.664 C30.9029989,90.664 30.7110008,90.6340003 30.543,90.574 C30.3749992,90.5139997 30.2220007,90.4090007 30.084,90.259 L27.825,87.793 C27.1409966,88.0210011 26.400004,88.135 25.602,88.135 C24.6539953,88.135 23.7900039,87.9745016 23.01,87.6535 C22.2299961,87.3324984 21.5610028,86.8810029 21.003,86.299 C20.4449972,85.7169971 20.0130015,85.022504 19.707,84.2155 C19.4009985,83.408496 19.248,82.5220048 19.248,81.556 C19.248,80.5899952 19.4009985,79.703504 19.707,78.8965 C20.0130015,78.089496 20.4449972,77.3935029 21.003,76.8085 C21.5610028,76.2234971 22.2299961,75.7690016 23.01,75.445 C23.7900039,75.1209984 24.6539953,74.959 25.602,74.959 C26.5500047,74.959 27.4154961,75.1209984 28.1985,75.445 C28.9815039,75.7690016 29.6519972,76.2234971 30.21,76.8085 C30.7680028,77.3935029 31.1999985,78.089496 31.506,78.8965 C31.8120015,79.703504 31.965,80.5899952 31.965,81.556 C31.965,82.162003 31.9035006,82.7379973 31.7805,83.284 C31.6574994,83.8300027 31.4790012,84.3384976 31.245,84.8095 C31.0109988,85.2805024 30.7260017,85.7079981 30.39,86.092 C30.0539983,86.4760019 29.6760021,86.8089986 29.256,87.091 L32.559,90.664 Z M39.426,86.614 C39.9600027,86.614 40.4369979,86.5240009 40.857,86.344 C41.2770021,86.1639991 41.6324985,85.9120016 41.9235,85.588 C42.2145015,85.2639984 42.4364992,84.8770022 42.5895,84.427 C42.7425008,83.9769977 42.819,83.4820027 42.819,82.942 L42.819,75.103 L44.556,75.103 L44.556,82.942 C44.556,83.6860037 44.4375012,84.3759968 44.2005,85.012 C43.9634988,85.6480032 43.6245022,86.1984977 43.1835,86.6635 C42.7424978,87.1285023 42.2040032,87.4929987 41.568,87.757 C40.9319968,88.0210013 40.218004,88.153 39.426,88.153 C38.633996,88.153 37.9200032,88.0210013 37.284,87.757 C36.6479968,87.4929987 36.1080022,87.1285023 35.664,86.6635 C35.2199978,86.1984977 34.8795012,85.6480032 34.6425,85.012 C34.4054988,84.3759968 34.287,83.6860037 34.287,82.942 L34.287,75.103 L36.024,75.103 L36.024,82.933 C36.024,83.4730027 36.1004992,83.9679977 36.2535,84.418 C36.4065008,84.8680022 36.6284985,85.2549984 36.9195,85.579 C37.2105015,85.9030016 37.5674979,86.1564991 37.9905,86.3395 C38.4135021,86.5225009 38.8919973,86.614 39.426,86.614 L39.426,86.614 Z M55.644,86.578 L55.635,88 L47.688,88 L47.688,75.103 L55.635,75.103 L55.635,76.525 L49.434,76.525 L49.434,80.809 L54.456,80.809 L54.456,82.177 L49.434,82.177 L49.434,86.578 L55.644,86.578 Z M64.68,77.119 C64.6259997,77.2090004 64.5675003,77.2764998 64.5045,77.3215 C64.4414997,77.3665002 64.3650004,77.389 64.275,77.389 C64.1729995,77.389 64.0530007,77.3380005 63.915,77.236 C63.7769993,77.1339995 63.604501,77.0215006 63.3975,76.8985 C63.190499,76.7754994 62.9415015,76.6630005 62.6505,76.561 C62.3594985,76.4589995 62.0070021,76.408 61.593,76.408 C61.202998,76.408 60.8595015,76.4604995 60.5625,76.5655 C60.2654985,76.6705005 60.016501,76.8129991 59.8155,76.993 C59.614499,77.1730009 59.4630005,77.3844988 59.361,77.6275 C59.2589995,77.8705012 59.208,78.1329986 59.208,78.415 C59.208,78.7750018 59.2964991,79.0734988 59.4735,79.3105 C59.6505009,79.5475012 59.8844985,79.7499992 60.1755,79.918 C60.4665015,80.0860008 60.7964982,80.2314994 61.1655,80.3545 C61.5345018,80.4775006 61.9124981,80.6049993 62.2995,80.737 C62.6865019,80.8690007 63.0644982,81.0174992 63.4335,81.1825 C63.8025018,81.3475008 64.1324985,81.5559987 64.4235,81.808 C64.7145015,82.0600013 64.9484991,82.3689982 65.1255,82.735 C65.3025009,83.1010018 65.391,83.5509973 65.391,84.085 C65.391,84.6490028 65.295001,85.1784975 65.103,85.6735 C64.910999,86.1685025 64.6305018,86.5989982 64.2615,86.965 C63.8924982,87.3310018 63.4395027,87.6189989 62.9025,87.829 C62.3654973,88.039001 61.7550034,88.144 61.071,88.144 C60.2309958,88.144 59.4690034,87.9925015 58.785,87.6895 C58.1009966,87.3864985 57.5160024,86.9770026 57.03,86.461 L57.534,85.633 C57.5820002,85.5669997 57.6404997,85.5115002 57.7095,85.4665 C57.7785003,85.4214998 57.8549996,85.399 57.939,85.399 C58.0170004,85.399 58.1054995,85.4304997 58.2045,85.4935 C58.3035005,85.5565003 58.4159994,85.6359995 58.542,85.732 C58.6680006,85.8280005 58.8119992,85.9329994 58.974,86.047 C59.1360008,86.1610006 59.320499,86.2659995 59.5275,86.362 C59.734501,86.4580005 59.9699987,86.5374997 60.234,86.6005 C60.4980013,86.6635003 60.7949983,86.695 61.125,86.695 C61.5390021,86.695 61.9079984,86.6380006 62.232,86.524 C62.5560016,86.4099994 62.8304989,86.249501 63.0555,86.0425 C63.2805011,85.835499 63.4529994,85.5880014 63.573,85.3 C63.6930006,85.0119986 63.753,84.6910018 63.753,84.337 C63.753,83.946998 63.6645009,83.6275012 63.4875,83.3785 C63.3104991,83.1294988 63.0780014,82.9210008 62.79,82.753 C62.5019986,82.5849992 62.1720019,82.4425006 61.8,82.3255 C61.4279981,82.2084994 61.0500019,82.0885006 60.666,81.9655 C60.2819981,81.8424994 59.9040019,81.7000008 59.532,81.538 C59.1599981,81.3759992 58.8300014,81.1660013 58.542,80.908 C58.2539986,80.6499987 58.0215009,80.3275019 57.8445,79.9405 C57.6674991,79.5534981 57.579,79.0750028 57.579,78.505 C57.579,78.0489977 57.6674991,77.6080021 57.8445,77.182 C58.0215009,76.7559979 58.2794983,76.3780016 58.6185,76.048 C58.9575017,75.7179983 59.3744975,75.454001 59.8695,75.256 C60.3645025,75.057999 60.9329968,74.959 61.575,74.959 C62.2950036,74.959 62.950497,75.0729989 63.5415,75.301 C64.132503,75.5290011 64.6529977,75.8589978 65.103,76.291 L64.68,77.119 Z M76.569,76.57 L72.393,76.57 L72.393,88 L70.656,88 L70.656,76.57 L66.471,76.57 L66.471,75.103 L76.569,75.103 L76.569,76.57 Z" id="REQUEST" fill="#3E3E3E" sketch:type="MSShapeGroup"></path>
        </g>
    </g>
</svg>