<?xml version="1.0" encoding="UTF-8" standalone="no"?>
<svg width="1024px" height="556px" viewBox="0 0 1024 556" version="1.1" xmlns="http://www.w3.org/2000/svg" xmlns:xlink="http://www.w3.org/1999/xlink" xmlns:sketch="http://www.bohemiancoding.com/sketch/ns">
    <!-- Generator: Sketch 3.3 (11970) - http://www.bohemiancoding.com/sketch -->
    <title>Rectangle 38 Copy 4</title>
    <desc>Created with Sketch.</desc>
    <defs></defs>
    <g id="Page-1" stroke="none" stroke-width="1" fill="none" fill-rule="evenodd" sketch:type="MSPage">
        <rect id="Rectangle-38-Copy-4" opacity="0.263817631" fill="#CED1D3" sketch:type="MSShapeGroup" x="0" y="0" width="1024" height="556"></rect>
        <g id="stress-coaching-copy" sketch:type="MSLayerGroup" transform="translate(412.000000, 78.000000)">
            <circle id="Oval-5-Copy" fill="#F48267" sketch:type="MSShapeGroup" cx="100" cy="100" r="100"></circle>
            <path d="M149.660302,186.817397 C179.737604,169.575795 200,137.154165 200,100 C200,94.6684364 199.582761,89.4343243 198.779154,84.3285347 L140,52 L69,152 L149.660302,186.817397 Z" id="Oval-4" fill="#BE634E" sketch:type="MSShapeGroup"></path>
            <circle id="Oval-15" fill="#4A4A4A" sketch:type="MSShapeGroup" cx="100" cy="99" r="60"></circle>
            <path d="M45.5,121.5 L154.5,121.5" id="Line" stroke="#F48267" stroke-width="3" stroke-linecap="square" sketch:type="MSShapeGroup"></path>
        </g>
        <path d="M375.28,359.36 C380.48,359.36 384.16,355.84 384.16,351.04 C384.16,343.16 373.4,341.36 373.4,337.84 C373.4,336.64 374.28,335.8 375.44,335.8 C376.6,335.8 377.6,336.64 378.32,337.72 L382.16,334.32 C380.68,332.04 378.36,330.6 375.2,330.6 C371.24,330.6 367.64,333.56 367.64,337.8 C367.64,345.36 378.44,346.96 378.44,351.12 C378.44,352.84 377.16,354.08 375.32,354.08 C373.28,354.08 371.52,352.92 370.4,350.72 L365.8,354 C367.68,357.72 371.32,359.36 375.28,359.36 L375.28,359.36 Z M385.92,339.48 L385.92,344.68 L388.64,344.68 L388.64,359 L394.24,359 L394.24,344.68 L397,344.68 L397,339.48 L394.24,339.48 L394.24,332.52 L388.64,332.52 L388.64,339.48 L385.92,339.48 Z M406.52,349.36 C406.52,346.16 408.84,344.48 411.76,344.48 L411.76,339 C409.2,339 407.44,340.6 406.32,342.72 C406.44,341.96 406.52,341.24 406.52,340.8 L406.52,339.48 L400.92,339.48 L400.92,359 L406.52,359 L406.52,349.36 Z M433.52,350.44 L433.52,349.76 C433.52,343.76 430.92,339.04 424.32,339.04 C418.32,339.04 414.56,343.64 414.56,349.2 C414.56,355.2 418.76,359.4 424.48,359.4 C428.92,359.4 431.04,357.96 433.12,355.16 L429.4,352.48 C428.44,353.88 426.96,354.88 424.8,354.88 C422.6,354.88 420.6,353.68 420.2,350.44 L433.52,350.44 Z M424.28,343.6 C426,343.6 427.72,344.76 428.08,347 L420.36,347 C420.92,344.72 422.48,343.6 424.28,343.6 L424.28,343.6 Z M436.24,356.12 C438.36,358.4 441.24,359.4 444.76,359.4 C449.16,359.4 452.32,356.84 452.32,353.16 C452.32,349.44 448.52,347.6 445.56,346.72 C443.8,346.2 442.68,345.72 442.68,344.76 C442.68,344 443.44,343.52 444.48,343.52 C445.64,343.52 447.2,344.36 448.04,345.28 L451.16,341.92 C449.4,340.08 447.32,339.08 444.36,339.08 C441.08,339.08 437.44,341.2 437.44,344.96 C437.44,348.92 441.2,350.6 444.24,351.48 C445.88,351.96 446.88,352.44 446.88,353.44 C446.88,354.16 446,354.64 444.8,354.64 C442.92,354.64 440.76,354 439.4,352.44 L436.24,356.12 Z M455.04,356.12 C457.16,358.4 460.04,359.4 463.56,359.4 C467.96,359.4 471.12,356.84 471.12,353.16 C471.12,349.44 467.32,347.6 464.36,346.72 C462.6,346.2 461.48,345.72 461.48,344.76 C461.48,344 462.24,343.52 463.28,343.52 C464.44,343.52 466,344.36 466.84,345.28 L469.96,341.92 C468.2,340.08 466.12,339.08 463.16,339.08 C459.88,339.08 456.24,341.2 456.24,344.96 C456.24,348.92 460,350.6 463.04,351.48 C464.68,351.96 465.68,352.44 465.68,353.44 C465.68,354.16 464.8,354.64 463.6,354.64 C461.72,354.64 459.56,354 458.2,352.44 L455.04,356.12 Z M511.32,354.12 L506.92,350.6 C505.12,352.56 502.92,353.92 500.28,353.92 C495.52,353.92 491.84,350.08 491.84,345 C491.84,340 495.52,336.12 500.28,336.12 C502.88,336.12 505.04,337.44 506.8,339.28 L511.04,335.6 C508.32,332.44 504.8,330.64 500.32,330.64 C492.4,330.64 486.08,337.12 486.08,345 C486.08,352.96 492.32,359.4 500.32,359.4 C505.12,359.4 508.64,357.32 511.32,354.12 L511.32,354.12 Z M523.68,359.36 C529.4,359.36 533.88,355 533.88,349.2 C533.88,343.4 529.4,339.04 523.68,339.04 C517.96,339.04 513.48,343.4 513.48,349.2 C513.48,355 517.96,359.36 523.68,359.36 L523.68,359.36 Z M523.68,354.4 C520.88,354.4 518.92,352.2 518.92,349.2 C518.92,346.24 520.8,344.04 523.68,344.04 C526.52,344.04 528.4,346.24 528.4,349.2 C528.4,352.2 526.52,354.4 523.68,354.4 L523.68,354.4 Z M557.6,359 L557.6,353.92 L556.8,353.92 C556.08,353.92 555.6,353.48 555.6,352.76 L555.6,346.88 C555.6,342.2 552.28,338.96 546.84,338.96 C541.32,338.96 539.08,342.96 539.08,342.96 L543,345.88 C543.8,344.6 545.04,343.92 546.56,343.92 C548.72,343.92 550.04,345.2 550.04,347.12 L550.04,347.76 C548.56,347.48 546.96,347.28 545.32,347.28 C539.88,347.28 537.24,350.44 537.24,353.68 C537.24,356.6 539.44,359.4 543.76,359.4 C547.24,359.4 549.6,357.56 550.72,355.68 C551.6,357.72 553.24,359 555.64,359 L557.6,359 Z M545.2,355 C543.72,355 542.92,354.28 542.92,353.2 C542.92,351.6 544.68,350.84 546.96,350.84 C547.72,350.84 549,351.04 550.04,351.24 C549.32,353.36 547.56,355 545.2,355 L545.2,355 Z M577.56,342.48 C575.68,340.36 573.24,339.04 570.16,339.04 C564.32,339.04 560.16,343.52 560.16,349.2 C560.16,354.88 564.32,359.36 570.2,359.36 C573.64,359.36 576.04,357.92 578.04,355.2 L573.84,352 C573,353.2 571.8,354.08 570.2,354.08 C567.6,354.08 565.76,352.2 565.76,349.2 C565.76,346.32 567.6,344.24 570.2,344.24 C571.8,344.24 572.68,345 573.68,346.08 L577.56,342.48 Z M587.56,359 L587.56,347.76 C587.8,344.96 589.48,343.6 591.2,343.6 C593.08,343.6 594.8,345 594.8,347.72 L594.8,359 L600.44,359 L600.44,347.4 C600.44,342.16 597.4,339 593.36,339 C590.68,339 588.72,340.32 587.44,342.16 C587.52,341.64 587.56,341.12 587.56,340.8 L587.56,329 L581.96,329 L581.96,359 L587.56,359 Z M605,333.44 C605,335.44 606.68,337.12 608.68,337.12 C610.68,337.12 612.36,335.44 612.36,333.44 C612.36,331.44 610.68,329.76 608.68,329.76 C606.68,329.76 605,331.44 605,333.44 L605,333.44 Z M611.48,359 L611.48,339.48 L605.76,339.48 L605.76,359 L611.48,359 Z M622.52,347.56 C622.6,344.96 624.48,343.6 626.16,343.6 C628.04,343.6 629.76,345 629.76,347.72 L629.76,359 L635.4,359 L635.4,347.4 C635.4,342.16 632.36,339 628.32,339 C625.64,339 623.68,340.32 622.4,342.16 C622.48,341.6 622.52,341.12 622.52,340.8 L622.52,339.48 L616.92,339.48 L616.92,359 L622.52,359 L622.52,347.56 Z M649,339.08 C644.08,339.08 640.04,342.36 640.04,347.24 C640.04,349.52 640.76,351.44 642.08,352.84 C639.4,354.92 638.8,358.36 640.24,360.6 C636.8,365.12 638.88,371.68 649,371.68 C662.48,371.68 662.56,357.44 652.36,357.44 C649.68,357.44 648.48,358.2 646.64,358.2 C644,358.2 644.16,356.44 645.88,355 C646.84,355.24 647.84,355.36 649,355.36 C653.92,355.36 657.92,352.12 657.92,347.24 C657.92,345.4 657.28,343.72 656.16,342.36 L658.48,340.04 L655.2,336.96 L652.72,339.8 C651.6,339.32 650.32,339.08 649,339.08 L649,339.08 Z M645.32,347.24 C645.32,344.96 646.76,343.6 649,343.6 C651.2,343.6 652.64,344.92 652.64,347.24 C652.64,349.52 651.2,350.76 649,350.76 C646.88,350.76 645.32,349.56 645.32,347.24 L645.32,347.24 Z M645,362.96 C647.84,362.96 650,362.04 652.16,362.04 C655.84,362.04 656.04,366.92 649,366.92 C644.2,366.92 642.88,364.92 643.96,362.88 C644.28,362.92 644.64,362.96 645,362.96 L645,362.96 Z" id="Stress-Coaching" fill="#4A4A4A" sketch:type="MSShapeGroup"></path>
    </g>
</svg>