<?xml version="1.0" encoding="UTF-8" standalone="no"?>
<svg width="1024px" height="556px" viewBox="0 0 1024 556" version="1.1" xmlns="http://www.w3.org/2000/svg" xmlns:xlink="http://www.w3.org/1999/xlink" xmlns:sketch="http://www.bohemiancoding.com/sketch/ns">
    <!-- Generator: Sketch 3.3 (11970) - http://www.bohemiancoding.com/sketch -->
    <title>Rectangle 38 Copy 5</title>
    <desc>Created with Sketch.</desc>
    <defs></defs>
    <g id="Page-1" stroke="none" stroke-width="1" fill="none" fill-rule="evenodd" sketch:type="MSPage">
        <rect id="Rectangle-38-Copy-5" opacity="0.263817631" fill="#CED1D3" sketch:type="MSShapeGroup" x="0" y="0" width="1024" height="556"></rect>
        <g id="time-coaching-copy" sketch:type="MSLayerGroup" transform="translate(412.000000, 78.000000)">
            <circle id="Oval-3-Copy" fill="#F48267" sketch:type="MSShapeGroup" cx="100" cy="100" r="100"></circle>
            <path d="M157.683965,181.695774 C183.285541,163.585948 200,133.744909 200,100 C200,91.3422985 198.899776,82.941568 196.831518,74.9299981 L132,48 L100,161 L157.683965,181.695774 Z" id="Oval-2" fill="#BE634E" sketch:type="MSShapeGroup"></path>
            <circle id="Oval-12" fill="#4A4A4A" sketch:type="MSShapeGroup" cx="100" cy="99" r="59"></circle>
            <path d="M76.1781461,83.3742973 L76.1781461,54.4325967 L68.1781461,54.4325967 L68.1781461,87.4325967 L68.2705701,87.4325967 L107.337456,116.871607 L112.151976,110.482523 L76.1781461,83.3742973 Z" id="Rectangle-7" fill="#F48267" sketch:type="MSShapeGroup" transform="translate(90.165061, 85.652102) scale(-1, -1) rotate(53.000000) translate(-90.165061, -85.652102) "></path>
        </g>
        <path d="M387.92,359 L387.92,336.28 L393.28,336.28 L393.28,331 L376.8,331 L376.8,336.28 L382.16,336.28 L382.16,359 L387.92,359 Z M394.88,333.44 C394.88,335.44 396.56,337.12 398.56,337.12 C400.56,337.12 402.24,335.44 402.24,333.44 C402.24,331.44 400.56,329.76 398.56,329.76 C396.56,329.76 394.88,331.44 394.88,333.44 L394.88,333.44 Z M401.36,359 L401.36,339.48 L395.64,339.48 L395.64,359 L401.36,359 Z M412.4,359 L412.4,346.76 C412.48,344.76 414.04,343.72 415.56,343.72 C417.04,343.72 418.44,344.68 418.44,346.68 L418.44,359 L424.04,359 L424.04,346.96 C424.04,344.68 425.56,343.6 427.08,343.6 C428.6,343.6 430.12,344.68 430.12,346.8 L430.12,359 L435.72,359 L435.72,346.4 C435.72,341.72 433.28,339 429.28,339 C426.64,339 424.48,340.32 423.08,342.2 C422.16,340.32 420.44,339 417.6,339 C415.28,339 413.4,340.2 412.24,342.08 C412.32,341.48 412.4,340.84 412.4,340.48 L412.4,339.48 L406.8,339.48 L406.8,359 L412.4,359 Z M458.6,350.44 L458.6,349.76 C458.6,343.76 456,339.04 449.4,339.04 C443.4,339.04 439.64,343.64 439.64,349.2 C439.64,355.2 443.84,359.4 449.56,359.4 C454,359.4 456.12,357.96 458.2,355.16 L454.48,352.48 C453.52,353.88 452.04,354.88 449.88,354.88 C447.68,354.88 445.68,353.68 445.28,350.44 L458.6,350.44 Z M449.36,343.6 C451.08,343.6 452.8,344.76 453.16,347 L445.44,347 C446,344.72 447.56,343.6 449.36,343.6 L449.36,343.6 Z M498.8,354.12 L494.4,350.6 C492.6,352.56 490.4,353.92 487.76,353.92 C483,353.92 479.32,350.08 479.32,345 C479.32,340 483,336.12 487.76,336.12 C490.36,336.12 492.52,337.44 494.28,339.28 L498.52,335.6 C495.8,332.44 492.28,330.64 487.8,330.64 C479.88,330.64 473.56,337.12 473.56,345 C473.56,352.96 479.8,359.4 487.8,359.4 C492.6,359.4 496.12,357.32 498.8,354.12 L498.8,354.12 Z M511.16,359.36 C516.88,359.36 521.36,355 521.36,349.2 C521.36,343.4 516.88,339.04 511.16,339.04 C505.44,339.04 500.96,343.4 500.96,349.2 C500.96,355 505.44,359.36 511.16,359.36 L511.16,359.36 Z M511.16,354.4 C508.36,354.4 506.4,352.2 506.4,349.2 C506.4,346.24 508.28,344.04 511.16,344.04 C514,344.04 515.88,346.24 515.88,349.2 C515.88,352.2 514,354.4 511.16,354.4 L511.16,354.4 Z M545.08,359 L545.08,353.92 L544.28,353.92 C543.56,353.92 543.08,353.48 543.08,352.76 L543.08,346.88 C543.08,342.2 539.76,338.96 534.32,338.96 C528.8,338.96 526.56,342.96 526.56,342.96 L530.48,345.88 C531.28,344.6 532.52,343.92 534.04,343.92 C536.2,343.92 537.52,345.2 537.52,347.12 L537.52,347.76 C536.04,347.48 534.44,347.28 532.8,347.28 C527.36,347.28 524.72,350.44 524.72,353.68 C524.72,356.6 526.92,359.4 531.24,359.4 C534.72,359.4 537.08,357.56 538.2,355.68 C539.08,357.72 540.72,359 543.12,359 L545.08,359 Z M532.68,355 C531.2,355 530.4,354.28 530.4,353.2 C530.4,351.6 532.16,350.84 534.44,350.84 C535.2,350.84 536.48,351.04 537.52,351.24 C536.8,353.36 535.04,355 532.68,355 L532.68,355 Z M565.04,342.48 C563.16,340.36 560.72,339.04 557.64,339.04 C551.8,339.04 547.64,343.52 547.64,349.2 C547.64,354.88 551.8,359.36 557.68,359.36 C561.12,359.36 563.52,357.92 565.52,355.2 L561.32,352 C560.48,353.2 559.28,354.08 557.68,354.08 C555.08,354.08 553.24,352.2 553.24,349.2 C553.24,346.32 555.08,344.24 557.68,344.24 C559.28,344.24 560.16,345 561.16,346.08 L565.04,342.48 Z M575.04,359 L575.04,347.76 C575.28,344.96 576.96,343.6 578.68,343.6 C580.56,343.6 582.28,345 582.28,347.72 L582.28,359 L587.92,359 L587.92,347.4 C587.92,342.16 584.88,339 580.84,339 C578.16,339 576.2,340.32 574.92,342.16 C575,341.64 575.04,341.12 575.04,340.8 L575.04,329 L569.44,329 L569.44,359 L575.04,359 Z M592.48,333.44 C592.48,335.44 594.16,337.12 596.16,337.12 C598.16,337.12 599.84,335.44 599.84,333.44 C599.84,331.44 598.16,329.76 596.16,329.76 C594.16,329.76 592.48,331.44 592.48,333.44 L592.48,333.44 Z M598.96,359 L598.96,339.48 L593.24,339.48 L593.24,359 L598.96,359 Z M610,347.56 C610.08,344.96 611.96,343.6 613.64,343.6 C615.52,343.6 617.24,345 617.24,347.72 L617.24,359 L622.88,359 L622.88,347.4 C622.88,342.16 619.84,339 615.8,339 C613.12,339 611.16,340.32 609.88,342.16 C609.96,341.6 610,341.12 610,340.8 L610,339.48 L604.4,339.48 L604.4,359 L610,359 L610,347.56 Z M636.48,339.08 C631.56,339.08 627.52,342.36 627.52,347.24 C627.52,349.52 628.24,351.44 629.56,352.84 C626.88,354.92 626.28,358.36 627.72,360.6 C624.28,365.12 626.36,371.68 636.48,371.68 C649.96,371.68 650.04,357.44 639.84,357.44 C637.16,357.44 635.96,358.2 634.12,358.2 C631.48,358.2 631.64,356.44 633.36,355 C634.32,355.24 635.32,355.36 636.48,355.36 C641.4,355.36 645.4,352.12 645.4,347.24 C645.4,345.4 644.76,343.72 643.64,342.36 L645.96,340.04 L642.68,336.96 L640.2,339.8 C639.08,339.32 637.8,339.08 636.48,339.08 L636.48,339.08 Z M632.8,347.24 C632.8,344.96 634.24,343.6 636.48,343.6 C638.68,343.6 640.12,344.92 640.12,347.24 C640.12,349.52 638.68,350.76 636.48,350.76 C634.36,350.76 632.8,349.56 632.8,347.24 L632.8,347.24 Z M632.48,362.96 C635.32,362.96 637.48,362.04 639.64,362.04 C643.32,362.04 643.52,366.92 636.48,366.92 C631.68,366.92 630.36,364.92 631.44,362.88 C631.76,362.92 632.12,362.96 632.48,362.96 L632.48,362.96 Z" id="Time-Coaching" fill="#4A4A4A" sketch:type="MSShapeGroup"></path>
    </g>
</svg>