<?xml version="1.0" encoding="UTF-8" standalone="no"?>
<svg width="247px" height="247px" viewBox="0 0 247 247" version="1.1" xmlns="http://www.w3.org/2000/svg" xmlns:xlink="http://www.w3.org/1999/xlink" xmlns:sketch="http://www.bohemiancoding.com/sketch/ns">
    <!-- Generator: Sketch 3.3 (11970) - http://www.bohemiancoding.com/sketch -->
    <title>Group</title>
    <desc>Created with Sketch.</desc>
    <defs>
        <linearGradient x1="50%" y1="0%" x2="50%" y2="100%" id="linearGradient-1">
            <stop stop-color="#AAABA6" offset="0%"></stop>
            <stop stop-color="#ECE9E4" offset="100%"></stop>
        </linearGradient>
        <filter x="-50%" y="-50%" width="200%" height="200%" filterUnits="objectBoundingBox" id="filter-2">
            <feGaussianBlur stdDeviation="3 0" in="SourceGraphic" result="blur"></feGaussianBlur>
        </filter>
        <filter x="-50%" y="-50%" width="200%" height="200%" filterUnits="objectBoundingBox" id="filter-3">
            <feGaussianBlur stdDeviation="3 0" in="SourceGraphic" result="blur"></feGaussianBlur>
        </filter>
        <filter x="-50%" y="-50%" width="200%" height="200%" filterUnits="objectBoundingBox" id="filter-4">
            <feGaussianBlur stdDeviation="3 0" in="SourceGraphic" result="blur"></feGaussianBlur>
        </filter>
        <linearGradient x1="50%" y1="0%" x2="50%" y2="100%" id="linearGradient-5">
            <stop stop-color="#39FF8B" offset="0%"></stop>
            <stop stop-color="#02CE3D" offset="100%"></stop>
        </linearGradient>
        <linearGradient x1="50%" y1="0%" x2="50%" y2="100%" id="linearGradient-6">
            <stop stop-color="#63B854" offset="0%"></stop>
            <stop stop-color="#479F40" offset="100%"></stop>
        </linearGradient>
    </defs>
    <g id="Page-1" stroke="none" stroke-width="1" fill="none" fill-rule="evenodd" sketch:type="MSPage">
        <g id="Group" sketch:type="MSLayerGroup" transform="translate(5.000000, 35.000000)">
            <rect id="Rectangle-39" fill="url(#linearGradient-1)" filter="url(#filter-2)" sketch:type="MSShapeGroup" x="4" y="35" width="66" height="119"></rect>
            <rect id="Rectangle-39-Copy" fill="url(#linearGradient-1)" filter="url(#filter-3)" sketch:type="MSShapeGroup" x="85" y="36" width="66" height="119"></rect>
            <rect id="Rectangle-39-Copy-2" fill="url(#linearGradient-1)" filter="url(#filter-4)" sketch:type="MSShapeGroup" x="167" y="36" width="66" height="119"></rect>
            <g id="facetime" transform="translate(2.000000, 0.000000)" sketch:type="MSShapeGroup">
                <circle id="Oval-40" fill="url(#linearGradient-5)" cx="35" cy="35" r="35"></circle>
                <g id="Rectangle-58-+-Rectangle-56-+-Rectangle-57" transform="translate(14.700000, 24.850000)" fill="#ECE9E4">
                    <path d="M33.95,11.8015945 C33.95,10.6961444 34.6044496,9.19589272 35.4221861,8.44105897 L41.5778139,2.75894103 C42.3908798,2.00841862 43.05,2.30234375 43.05,3.39456145 L43.05,20.4054385 C43.05,21.5070044 42.3955504,21.7958927 41.5778139,21.041059 L35.4221861,15.358941 C34.6091202,14.6084186 33.95,13.109288 33.95,11.9984055 L33.95,11.8015945 Z" id="Rectangle-58"></path>
                    <rect id="Rectangle-56" x="2.1" y="0" width="31.5" height="23.8" rx="5"></rect>
                    <path d="M1.75,4.9 L1.75,9.8 C1.75,9.8 5.35782981e-17,9.8 0,7.35 C5.35782975e-17,4.9 1.75,4.9 1.75,4.9 Z" id="Rectangle-57"></path>
                </g>
            </g>
            <path d="M13.5,168.5 L228.5,168.5" id="Line-Copy-2" stroke="#979797" stroke-linecap="square" opacity="0.40076959" sketch:type="MSShapeGroup"></path>
            <g id="google-hangouts" transform="translate(165.000000, 1.000000)" sketch:type="MSShapeGroup">
                <circle id="Oval-40-Copy" fill="url(#linearGradient-6)" cx="35" cy="35" r="35"></circle>
                <g id="Oval-42-+-Rectangle-60-+-Rectangle-60-Copy" transform="translate(13.867925, 12.547170)">
                    <path d="M42.1320755,21.1320755 C42.1320755,9.53409573 32.7300552,0.132075472 21.1320755,0.132075472 C9.53409573,0.132075472 0.132075472,9.53409573 0.132075472,21.1320755 C0.132075472,32.7300552 9.53409573,42.1320755 21.1320755,42.1320755 L21.1320755,48.7820755 C21.1320755,48.7820755 28.4820755,44.2320755 35.4820755,37.9320755 C42.4820755,31.6320755 42.1320755,21.1320755 42.1320755,21.1320755 Z" id="Oval-42" fill="#DAEFCF"></path>
                    <path d="M19.7320755,26.0320755 L19.7320755,16.2320755 L10.6320755,16.2320755 L10.6320755,26.0320755 L16.9320755,26.0320755 C16.9320777,26.0321445 16.9820231,27.5607218 16.5820755,28.1320755 C16.1653654,28.7273755 15.1820755,29.5320755 15.1820755,29.5320755 L15.1820755,32.6820755 C15.1820755,32.6820755 17.4436773,31.692042 18.6820755,29.8820755 C19.9204457,28.0721498 19.732084,26.0321676 19.7320755,26.0320755 Z" id="Rectangle-60" fill="#5FB551"></path>
                    <path d="M31.6320755,26.0320755 L31.6320755,16.2320755 L22.5320755,16.2320755 L22.5320755,26.0320755 L28.8320755,26.0320755 C28.8320777,26.0321445 28.8820231,27.5607218 28.4820755,28.1320755 C28.0653654,28.7273755 27.0820755,29.5320755 27.0820755,29.5320755 L27.0820755,32.6820755 C27.0820755,32.6820755 29.3436773,31.692042 30.5820755,29.8820755 C31.8204457,28.0721498 31.632084,26.0321676 31.6320755,26.0320755 Z" id="Rectangle-60-Copy" fill="#5FB551"></path>
                </g>
            </g>
            <g id="skype" transform="translate(83.000000, 1.000000)" sketch:type="MSShapeGroup">
                <circle id="Oval-40-Copy-2" fill="#24B0EF" cx="35" cy="35" r="35"></circle>
                <g transform="translate(14.231132, 14.231132)" id="Shape" fill="#ECE9E4">
                    <path d="M40.6198134,23.9224857 C40.7369279,23.0528796 40.8043145,22.1688079 40.8043145,21.2688492 C40.8043145,10.4694283 32.0356392,1.71341446 21.2211256,1.71341446 C20.1462713,1.71341446 19.092491,1.80204739 18.0670313,1.97095166 C16.2285174,0.768219508 14.0403259,0.0672668104 11.685542,0.0672668104 C5.22816994,0.0672668104 0,5.31901881 0,11.7990894 C0,14.1568926 0.691275249,16.3472967 1.88166139,18.18643 C1.72131619,19.1912431 1.63935272,20.2202213 1.63935272,21.2684311 C1.63935272,32.069608 10.4035301,40.824702 21.2210423,40.824702 C22.4419149,40.824702 23.6305518,40.705382 24.7857869,40.4958404 C26.5808203,41.6137023 28.6952113,42.2641509 30.9618677,42.2641509 C37.4174906,42.2642346 42.6476597,37.0111447 42.6476597,30.531743 C42.6474098,28.0823803 41.9013256,25.8050993 40.6198134,23.9224857 L40.6198134,23.9224857 Z M23.0513932,35.681149 C16.8287498,36.0065824 13.9167976,34.624494 11.2492365,32.1114996 C8.27014754,29.3047622 9.46686419,26.1033575 11.8939492,25.9405572 C14.3197014,25.7780077 15.7761356,28.7009713 17.0708086,29.5139694 C18.363899,30.3240409 23.2842061,32.1696127 25.8830479,29.1871982 C28.71312,25.9405572 24.0010533,24.2605451 20.547176,23.7519927 C15.6157904,23.0190151 9.3896486,20.34113 9.87401607,15.0637079 C10.3584668,9.78971401 14.3371936,7.08557346 18.5243275,6.70411739 C23.8616988,6.21772328 27.3363169,7.51577764 30.0845921,9.86981811 C33.2623425,12.5897621 31.5429421,15.6304569 29.5182611,15.8751173 C27.5014933,16.1183561 25.2365027,11.4013283 20.7895679,11.3304219 C16.2060274,11.2581777 13.1082413,16.1183561 18.7666362,17.4999428 C24.4279464,18.8800245 30.4905778,19.4470244 32.6738548,24.6421684 C34.8586311,29.837814 29.279201,35.3554648 23.0513932,35.681149 L23.0513932,35.681149 Z"></path>
                </g>
            </g>
            <path d="M12.528,131 L18.936,113.432 L13.464,113.432 L10.26,122.576 C9.9,123.62 9.684,124.916 9.648,125.096 C9.612,124.844 9.396,123.584 9.036,122.576 L5.832,113.432 L0.36,113.432 L6.768,131 L12.528,131 Z M21.1528421,107.996 C21.1528421,109.796 22.6648421,111.308 24.4648421,111.308 C26.2648421,111.308 27.7768421,109.796 27.7768421,107.996 C27.7768421,106.196 26.2648421,104.684 24.4648421,104.684 C22.6648421,104.684 21.1528421,106.196 21.1528421,107.996 L21.1528421,107.996 Z M26.9848421,131 L26.9848421,113.432 L21.8368421,113.432 L21.8368421,131 L26.9848421,131 Z M48.6776842,131 L48.6776842,104 L43.6376842,104 L43.6376842,115.196 C42.2696842,113.756 40.4696842,113.036 38.5256842,113.036 C33.6656842,113.036 30.8936842,117.464 30.8936842,122.144 C30.8936842,126.896 33.5576842,131.36 38.4896842,131.36 C40.5416842,131.36 42.4136842,130.352 43.8176842,128.696 L43.8176842,131 L48.6776842,131 Z M39.8216842,126.896 C37.2296842,126.896 35.8976842,124.772 35.8976842,122.216 C35.8976842,119.624 37.1936842,117.536 39.8216842,117.536 C42.1616842,117.536 43.7096842,119.48 43.7096842,122.18 C43.7096842,124.592 42.1256842,126.896 39.8216842,126.896 L39.8216842,126.896 Z M69.3265263,123.296 L69.3265263,122.684 C69.3265263,117.284 66.9865263,113.036 61.0465263,113.036 C55.6465263,113.036 52.2625263,117.176 52.2625263,122.18 C52.2625263,127.58 56.0425263,131.36 61.1905263,131.36 C65.1865263,131.36 67.0945263,130.064 68.9665263,127.544 L65.6185263,125.132 C64.7545263,126.392 63.4225263,127.292 61.4785263,127.292 C59.4985263,127.292 57.6985263,126.212 57.3385263,123.296 L69.3265263,123.296 Z M61.0105263,117.14 C62.5585263,117.14 64.1065263,118.184 64.4305263,120.2 L57.4825263,120.2 C57.9865263,118.148 59.3905263,117.14 61.0105263,117.14 L61.0105263,117.14 Z M81.0113684,131.324 C86.1593684,131.324 90.1913684,127.4 90.1913684,122.18 C90.1913684,116.96 86.1593684,113.036 81.0113684,113.036 C75.8633684,113.036 71.8313684,116.96 71.8313684,122.18 C71.8313684,127.4 75.8633684,131.324 81.0113684,131.324 L81.0113684,131.324 Z M81.0113684,126.86 C78.4913684,126.86 76.7273684,124.88 76.7273684,122.18 C76.7273684,119.516 78.4193684,117.536 81.0113684,117.536 C83.5673684,117.536 85.2593684,119.516 85.2593684,122.18 C85.2593684,124.88 83.5673684,126.86 81.0113684,126.86 L81.0113684,126.86 Z M101.660211,122.864 L101.660211,118.976 L92.9122105,118.976 L92.9122105,122.864 L101.660211,122.864 Z M113.093053,113.072 C108.665053,113.072 105.029053,116.024 105.029053,120.416 C105.029053,122.468 105.677053,124.196 106.865053,125.456 C104.453053,127.328 103.913053,130.424 105.209053,132.44 C102.113053,136.508 103.985053,142.412 113.093053,142.412 C125.225053,142.412 125.297053,129.596 116.117053,129.596 C113.705053,129.596 112.625053,130.28 110.969053,130.28 C108.593053,130.28 108.737053,128.696 110.285053,127.4 C111.149053,127.616 112.049053,127.724 113.093053,127.724 C117.521053,127.724 121.121053,124.808 121.121053,120.416 C121.121053,118.76 120.545053,117.248 119.537053,116.024 L121.625053,113.936 L118.673053,111.164 L116.441053,113.72 C115.433053,113.288 114.281053,113.072 113.093053,113.072 L113.093053,113.072 Z M109.781053,120.416 C109.781053,118.364 111.077053,117.14 113.093053,117.14 C115.073053,117.14 116.369053,118.328 116.369053,120.416 C116.369053,122.468 115.073053,123.584 113.093053,123.584 C111.185053,123.584 109.781053,122.504 109.781053,120.416 L109.781053,120.416 Z M109.493053,134.564 C112.049053,134.564 113.993053,133.736 115.937053,133.736 C119.249053,133.736 119.429053,138.128 113.093053,138.128 C108.773053,138.128 107.585053,136.328 108.557053,134.492 C108.845053,134.528 109.169053,134.564 109.493053,134.564 L109.493053,134.564 Z M141.193895,123.296 L141.193895,122.684 C141.193895,117.284 138.853895,113.036 132.913895,113.036 C127.513895,113.036 124.129895,117.176 124.129895,122.18 C124.129895,127.58 127.909895,131.36 133.057895,131.36 C137.053895,131.36 138.961895,130.064 140.833895,127.544 L137.485895,125.132 C136.621895,126.392 135.289895,127.292 133.345895,127.292 C131.365895,127.292 129.565895,126.212 129.205895,123.296 L141.193895,123.296 Z M132.877895,117.14 C134.425895,117.14 135.973895,118.184 136.297895,120.2 L129.349895,120.2 C129.853895,118.148 131.257895,117.14 132.877895,117.14 L132.877895,117.14 Z M143.698737,128.408 C145.606737,130.46 148.198737,131.36 151.366737,131.36 C155.326737,131.36 158.170737,129.056 158.170737,125.744 C158.170737,122.396 154.750737,120.74 152.086737,119.948 C150.502737,119.48 149.494737,119.048 149.494737,118.184 C149.494737,117.5 150.178737,117.068 151.114737,117.068 C152.158737,117.068 153.562737,117.824 154.318737,118.652 L157.126737,115.628 C155.542737,113.972 153.670737,113.072 151.006737,113.072 C148.054737,113.072 144.778737,114.98 144.778737,118.364 C144.778737,121.928 148.162737,123.44 150.898737,124.232 C152.374737,124.664 153.274737,125.096 153.274737,125.996 C153.274737,126.644 152.482737,127.076 151.402737,127.076 C149.710737,127.076 147.766737,126.5 146.542737,125.096 L143.698737,128.408 Z M166.615579,140 L166.615579,128.696 C167.983579,130.352 169.891579,131.36 171.943579,131.36 C176.875579,131.36 179.539579,126.896 179.539579,122.144 C179.539579,117.464 176.767579,113.036 171.907579,113.036 C169.963579,113.036 168.163579,113.756 166.795579,115.196 L166.795579,113.432 L161.755579,113.432 L161.755579,140 L166.615579,140 Z M170.611579,126.896 C168.307579,126.896 166.723579,124.592 166.723579,122.18 C166.723579,119.48 168.271579,117.536 170.611579,117.536 C173.239579,117.536 174.535579,119.624 174.535579,122.216 C174.535579,124.772 173.203579,126.896 170.611579,126.896 L170.611579,126.896 Z M188.164421,122.324 C188.164421,119.444 190.252421,117.932 192.880421,117.932 L192.880421,113 C190.576421,113 188.992421,114.44 187.984421,116.348 C188.092421,115.664 188.164421,115.016 188.164421,114.62 L188.164421,113.432 L183.124421,113.432 L183.124421,131 L188.164421,131 L188.164421,122.324 Z M212.521263,123.296 L212.521263,122.684 C212.521263,117.284 210.181263,113.036 204.241263,113.036 C198.841263,113.036 195.457263,117.176 195.457263,122.18 C195.457263,127.58 199.237263,131.36 204.385263,131.36 C208.381263,131.36 210.289263,130.064 212.161263,127.544 L208.813263,125.132 C207.949263,126.392 206.617263,127.292 204.673263,127.292 C202.693263,127.292 200.893263,126.212 200.533263,123.296 L212.521263,123.296 Z M204.205263,117.14 C205.753263,117.14 207.301263,118.184 207.625263,120.2 L200.677263,120.2 C201.181263,118.148 202.585263,117.14 204.205263,117.14 L204.205263,117.14 Z M233.134105,131 L225.718105,120.272 L231.730105,113.396 L226.114105,113.396 L221.218105,119.372 L221.218105,104 L216.106105,104 L216.106105,131 L221.218105,131 L221.218105,125.348 L222.730105,123.62 L227.662105,131 L233.134105,131 Z" id="video-gesprek" fill="#3E3E3E" sketch:type="MSShapeGroup"></path>
        </g>
    </g>
</svg>